<?xml version="1.0" encoding="utf-8"?>
<!-- Generator: Adobe Illustrator 19.0.0, SVG Export Plug-In . SVG Version: 6.00 Build 0)  -->
<svg version="1.1" id="Layer_1" xmlns="http://www.w3.org/2000/svg" xmlns:xlink="http://www.w3.org/1999/xlink" x="0px" y="0px"
	 viewBox="0 0 1140.1 1482.9" style="enable-background:new 0 0 1140.1 1482.9;" xml:space="preserve">
<style type="text/css">
	.st0{fill:#FDCA2B;}
	.st1{fill:#46AEAF;}
	.st2{fill:#F2B52F;}
	.st3{fill:#E23B59;}
	.st4{fill:#2A6072;}
	.st5{fill:#309693;}
	.st6{fill:#C93253;}
	.st7{fill:#838BC5;}
	.st8{fill:#65C8D0;}
	.st9{fill:#757FAF;}
	.st10{fill:#4DB9BC;}
</style>
<image style="overflow:visible;" width="1055" height="46" xlink:href="FD1A1FCC.png"  transform="matrix(1 0 0 1 48.2388 1388)">
</image>
<rect x="112" y="750.7" class="st0" width="915.2" height="162.6"/>
<rect x="112" y="537.5" class="st1" width="915.2" height="162.6"/>
<polygon class="st2" points="225.1,750.7 1027.2,750.7 914.1,700.2 112,700.2 "/>
<g>
	<g>
		<g>
			<rect x="112" y="324.4" class="st3" width="915.2" height="162.6"/>
		</g>
	</g>
</g>
<polygon class="st4" points="48.7,273.9 1102.6,273.9 575.7,38.5 575.6,38.5 "/>
<polygon class="st5" points="225.1,537.5 1027.2,537.5 914.1,487 112,487 "/>
<polygon class="st6" points="225.1,324.4 1027.2,324.4 914.1,273.9 112,273.9 "/>
<image style="overflow:visible;" width="916" height="17" xlink:href="FD1A1FCD.png"  transform="matrix(1 0 0 1 111.2388 734)">
</image>
<image style="overflow:visible;" width="916" height="17" xlink:href="FD1A1FC2.png"  transform="matrix(1 0 0 1 111.2388 521)">
</image>
<rect x="112" y="1177" class="st7" width="915.2" height="162.6"/>
<rect x="112" y="963.9" class="st8" width="915.2" height="162.6"/>
<polygon class="st9" points="225.1,1177 1027.2,1177 914.1,1126.5 112,1126.5 "/>
<polygon class="st10" points="225.1,963.9 1027.2,963.9 914.1,913.4 112,913.4 "/>
<image style="overflow:visible;" width="916" height="17" xlink:href="FD1A1FC3.png"  transform="matrix(1 0 0 1 111.2388 1161)">
</image>
<image style="overflow:visible;" width="916" height="17" xlink:href="FD1A1FC4.png"  transform="matrix(1 0 0 1 111.2388 947)">
</image>
<image style="overflow:visible;" width="916" height="17" xlink:href="FD1A1FC7.png"  transform="matrix(1 0 0 1 111.2388 308)">
</image>
<image style="overflow:visible;" width="916" height="17" xlink:href="FD1A1FC0.png"  transform="matrix(1 0 0 1 111.2388 257)">
</image>
<g>
	<path d="M260.5,412.4l-4.3,13h-5.5l14.1-41.4h6.4l14.1,41.4h-5.7l-4.4-13H260.5z M274.1,408.2l-4.1-11.9c-0.9-2.7-1.5-5.2-2.1-7.6
		h-0.1c-0.6,2.5-1.3,5-2.1,7.5l-4.1,12H274.1z"/>
	<path d="M291,403.8c0-3.1-0.1-5.6-0.2-8h4.8l0.3,4.9h0.1c1.5-2.8,4.9-5.6,9.8-5.6c4.1,0,10.5,2.5,10.5,12.6v17.7h-5.4v-17.1
		c0-4.8-1.8-8.8-6.9-8.8c-3.6,0-6.3,2.5-7.2,5.5c-0.2,0.7-0.4,1.6-0.4,2.5v17.9H291V403.8z"/>
	<path d="M341.5,425.4l-0.4-3.7h-0.2c-1.7,2.3-4.8,4.4-9.1,4.4c-6,0-9.1-4.2-9.1-8.5c0-7.2,6.4-11.1,17.9-11v-0.6
		c0-2.5-0.7-6.9-6.8-6.9c-2.8,0-5.6,0.9-7.7,2.2l-1.2-3.6c2.5-1.6,6-2.6,9.8-2.6c9.1,0,11.3,6.2,11.3,12.2v11.1
		c0,2.6,0.1,5.1,0.5,7.1H341.5z M340.7,410.3c-5.9-0.1-12.6,0.9-12.6,6.7c0,3.5,2.3,5.2,5.1,5.2c3.9,0,6.3-2.5,7.2-5
		c0.2-0.6,0.3-1.2,0.3-1.7V410.3z"/>
	<path d="M354.7,381.9h5.4v43.6h-5.4V381.9z"/>
	<path d="M371.1,395.7l6.5,17.6c0.7,2,1.4,4.3,1.9,6.1h0.1c0.6-1.8,1.2-4.1,1.9-6.2l5.9-17.4h5.7l-8.1,21.2
		c-3.9,10.2-6.5,15.4-10.2,18.6c-2.6,2.3-5.3,3.3-6.6,3.5l-1.4-4.5c1.4-0.4,3.1-1.3,4.7-2.6c1.5-1.2,3.3-3.3,4.5-6
		c0.2-0.6,0.4-1,0.4-1.3c0-0.3-0.1-0.7-0.4-1.4l-11-27.4H371.1z"/>
	<path d="M397,419.9c1.6,1,4.4,2.1,7.1,2.1c3.9,0,5.8-2,5.8-4.4c0-2.6-1.5-4-5.5-5.5c-5.3-1.9-7.9-4.8-7.9-8.4
		c0-4.8,3.9-8.7,10.3-8.7c3,0,5.6,0.9,7.3,1.8l-1.4,3.9c-1.2-0.7-3.3-1.7-6.1-1.7c-3.2,0-5,1.8-5,4.1c0,2.5,1.8,3.6,5.6,5
		c5.2,2,7.8,4.5,7.8,9c0,5.2-4.1,8.9-11.1,8.9c-3.3,0-6.3-0.8-8.3-2L397,419.9z"/>
	<path d="M428,387.4c0.1,1.8-1.3,3.3-3.4,3.3c-1.9,0-3.3-1.5-3.3-3.3c0-1.9,1.4-3.4,3.4-3.4C426.7,384,428,385.5,428,387.4z
		 M422,425.4v-29.7h5.4v29.7H422z"/>
	<path d="M435.6,419.9c1.6,1,4.4,2.1,7.1,2.1c3.9,0,5.8-2,5.8-4.4c0-2.6-1.5-4-5.5-5.5c-5.3-1.9-7.9-4.8-7.9-8.4
		c0-4.8,3.9-8.7,10.3-8.7c3,0,5.6,0.9,7.3,1.8l-1.4,3.9c-1.2-0.7-3.3-1.7-6.1-1.7c-3.2,0-5,1.8-5,4.1c0,2.5,1.8,3.6,5.6,5
		c5.2,2,7.8,4.5,7.8,9c0,5.2-4.1,8.9-11.1,8.9c-3.3,0-6.3-0.8-8.3-2L435.6,419.9z"/>
	<path d="M500.6,410.3c0,11-7.6,15.8-14.8,15.8c-8,0-14.2-5.9-14.2-15.3c0-9.9,6.5-15.8,14.7-15.8
		C494.8,395.1,500.6,401.3,500.6,410.3z M477,410.6c0,6.5,3.7,11.4,9,11.4c5.2,0,9-4.8,9-11.5c0-5-2.5-11.4-8.9-11.4
		C479.8,399.1,477,405,477,410.6z"/>
	<path d="M507.9,425.4v-25.6h-4.2v-4.1h4.2v-1.4c0-4.2,0.9-8,3.4-10.4c2-2,4.7-2.8,7.2-2.8c1.9,0,3.6,0.4,4.6,0.9l-0.7,4.2
		c-0.8-0.4-1.9-0.7-3.4-0.7c-4.6,0-5.8,4.1-5.8,8.6v1.6h7.2v4.1h-7.2v25.6H507.9z"/>
	<path d="M544.8,387.2v8.5h7.7v4.1h-7.7v16c0,3.7,1,5.8,4.1,5.8c1.4,0,2.5-0.2,3.1-0.4l0.2,4.1c-1,0.4-2.7,0.7-4.8,0.7
		c-2.5,0-4.5-0.8-5.8-2.3c-1.5-1.6-2.1-4.2-2.1-7.7v-16.2h-4.6v-4.1h4.6v-7.1L544.8,387.2z"/>
	<path d="M558.6,405c0-3.5-0.1-6.5-0.2-9.3h4.7l0.2,5.8h0.2c1.4-4,4.6-6.5,8.2-6.5c0.6,0,1,0.1,1.5,0.2v5.1
		c-0.6-0.1-1.1-0.2-1.8-0.2c-3.8,0-6.5,2.9-7.2,6.9c-0.1,0.7-0.2,1.6-0.2,2.5v15.8h-5.3V405z"/>
	<path d="M594.8,425.4l-0.4-3.7h-0.2c-1.7,2.3-4.8,4.4-9.1,4.4c-6,0-9.1-4.2-9.1-8.5c0-7.2,6.4-11.1,17.9-11v-0.6
		c0-2.5-0.7-6.9-6.8-6.9c-2.8,0-5.6,0.9-7.7,2.2l-1.2-3.6c2.5-1.6,6-2.6,9.8-2.6c9.1,0,11.3,6.2,11.3,12.2v11.1
		c0,2.6,0.1,5.1,0.5,7.1H594.8z M594,410.3c-5.9-0.1-12.6,0.9-12.6,6.7c0,3.5,2.3,5.2,5.1,5.2c3.9,0,6.3-2.5,7.2-5
		c0.2-0.6,0.3-1.2,0.3-1.7V410.3z"/>
	<path d="M614,387.4c0.1,1.8-1.3,3.3-3.4,3.3c-1.9,0-3.3-1.5-3.3-3.3c0-1.9,1.4-3.4,3.4-3.4C612.7,384,614,385.5,614,387.4z
		 M608,425.4v-29.7h5.4v29.7H608z"/>
	<path d="M622.3,403.8c0-3.1-0.1-5.6-0.2-8h4.8l0.3,4.9h0.1c1.5-2.8,4.9-5.6,9.8-5.6c4.1,0,10.5,2.5,10.5,12.6v17.7h-5.4v-17.1
		c0-4.8-1.8-8.8-6.9-8.8c-3.6,0-6.3,2.5-7.2,5.5c-0.2,0.7-0.4,1.6-0.4,2.5v17.9h-5.4V403.8z"/>
	<path d="M662.4,387.4c0.1,1.8-1.3,3.3-3.4,3.3c-1.9,0-3.3-1.5-3.3-3.3c0-1.9,1.4-3.4,3.4-3.4C661.1,384,662.4,385.5,662.4,387.4z
		 M656.4,425.4v-29.7h5.4v29.7H656.4z"/>
	<path d="M670.8,403.8c0-3.1-0.1-5.6-0.2-8h4.8l0.3,4.9h0.1c1.5-2.8,4.9-5.6,9.8-5.6c4.1,0,10.5,2.5,10.5,12.6v17.7h-5.4v-17.1
		c0-4.8-1.8-8.8-6.9-8.8c-3.6,0-6.3,2.5-7.2,5.5c-0.2,0.7-0.4,1.6-0.4,2.5v17.9h-5.4V403.8z"/>
	<path d="M730.4,395.7c-0.1,2.1-0.2,4.5-0.2,8.2v17.2c0,6.8-1.4,11-4.2,13.6c-2.9,2.7-7.1,3.6-10.8,3.6c-3.6,0-7.5-0.9-9.9-2.5
		l1.4-4.1c2,1.2,5,2.3,8.7,2.3c5.5,0,9.6-2.9,9.6-10.4v-3.3h-0.1c-1.7,2.8-4.8,5-9.5,5c-7.4,0-12.6-6.3-12.6-14.5
		c0-10.1,6.6-15.8,13.4-15.8c5.2,0,8,2.7,9.3,5.2h0.1l0.2-4.5H730.4z M724.8,407.5c0-0.9-0.1-1.7-0.3-2.5c-1-3.1-3.6-5.7-7.6-5.7
		c-5.2,0-8.8,4.4-8.8,11.2c0,5.8,2.9,10.7,8.8,10.7c3.3,0,6.3-2.1,7.5-5.5c0.3-0.9,0.4-2,0.4-2.9V407.5z"/>
	<path d="M752.1,403.8c0-3.1-0.1-5.6-0.2-8h4.8l0.3,4.9h0.1c1.5-2.8,4.9-5.6,9.8-5.6c4.1,0,10.5,2.5,10.5,12.6v17.7H772v-17.1
		c0-4.8-1.8-8.8-6.9-8.8c-3.6,0-6.3,2.5-7.2,5.5c-0.2,0.7-0.4,1.6-0.4,2.5v17.9h-5.4V403.8z"/>
	<path d="M789.2,411.6c0.1,7.3,4.8,10.3,10.2,10.3c3.9,0,6.2-0.7,8.2-1.5l0.9,3.9c-1.9,0.9-5.2,1.8-9.9,1.8c-9.1,0-14.6-6-14.6-15
		s5.3-16,13.9-16c9.7,0,12.3,8.5,12.3,14c0,1.1-0.1,2-0.2,2.5H789.2z M805.1,407.7c0.1-3.4-1.4-8.8-7.5-8.8c-5.5,0-7.9,5-8.3,8.8
		H805.1z"/>
	<path d="M820,411.6c0.1,7.3,4.8,10.3,10.2,10.3c3.9,0,6.2-0.7,8.2-1.5l0.9,3.9c-1.9,0.9-5.2,1.8-9.9,1.8c-9.1,0-14.6-6-14.6-15
		s5.3-16,13.9-16c9.7,0,12.3,8.5,12.3,14c0,1.1-0.1,2-0.2,2.5H820z M835.8,407.7c0.1-3.4-1.4-8.8-7.5-8.8c-5.5,0-7.9,5-8.3,8.8
		H835.8z"/>
	<path d="M873.4,381.9v35.9c0,2.6,0.1,5.6,0.2,7.7h-4.8l-0.2-5.2h-0.1c-1.7,3.3-5.3,5.8-10.1,5.8c-7.2,0-12.7-6.1-12.7-15.1
		c-0.1-9.9,6.1-16,13.3-16c4.5,0,7.6,2.1,9,4.5h0.1v-17.7H873.4z M868,407.8c0-0.7-0.1-1.6-0.2-2.3c-0.8-3.4-3.7-6.3-7.8-6.3
		c-5.6,0-8.9,4.9-8.9,11.5c0,6,2.9,11,8.8,11c3.6,0,6.9-2.4,7.9-6.4c0.2-0.7,0.2-1.5,0.2-2.3V407.8z"/>
	<path d="M881.6,419.9c1.6,1,4.4,2.1,7.1,2.1c3.9,0,5.8-2,5.8-4.4c0-2.6-1.5-4-5.5-5.5c-5.3-1.9-7.9-4.8-7.9-8.4
		c0-4.8,3.9-8.7,10.3-8.7c3,0,5.6,0.9,7.3,1.8l-1.4,3.9c-1.2-0.7-3.3-1.7-6.1-1.7c-3.2,0-5,1.8-5,4.1c0,2.5,1.8,3.6,5.6,5
		c5.2,2,7.8,4.5,7.8,9c0,5.2-4.1,8.9-11.1,8.9c-3.3,0-6.3-0.8-8.3-2L881.6,419.9z"/>
</g>
<g>
	<path d="M245.6,605.1c3.3-0.5,7.1-0.9,11.4-0.9c7.7,0,13.1,1.8,16.8,5.2c3.7,3.4,5.8,8.2,5.8,14.9c0,6.8-2.1,12.3-6,16.1
		c-3.9,3.9-10.3,6-18.3,6c-3.8,0-7-0.2-9.7-0.5V605.1z M250.9,641.7c1.4,0.2,3.3,0.3,5.4,0.3c11.4,0,17.6-6.4,17.6-17.6
		c0.1-9.8-5.5-16-16.8-16c-2.8,0-4.8,0.2-6.3,0.6V641.7z"/>
	<path d="M289.5,632.1c0.1,7.3,4.8,10.3,10.2,10.3c3.9,0,6.2-0.7,8.2-1.5l0.9,3.9c-1.9,0.9-5.2,1.8-9.9,1.8c-9.1,0-14.6-6-14.6-15
		s5.3-16,13.9-16c9.7,0,12.3,8.5,12.3,14c0,1.1-0.1,2-0.2,2.5H289.5z M305.3,628.2c0.1-3.4-1.4-8.8-7.5-8.8c-5.5,0-7.9,5-8.3,8.8
		H305.3z"/>
	<path d="M316.5,640.4c1.6,1,4.4,2.1,7.1,2.1c3.9,0,5.8-2,5.8-4.4c0-2.6-1.5-4-5.5-5.5c-5.3-1.9-7.9-4.8-7.9-8.4
		c0-4.8,3.9-8.7,10.3-8.7c3,0,5.6,0.9,7.3,1.8l-1.4,3.9c-1.2-0.7-3.3-1.7-6.1-1.7c-3.2,0-5,1.8-5,4.1c0,2.5,1.8,3.6,5.6,5
		c5.2,2,7.8,4.5,7.8,9c0,5.2-4.1,8.9-11.1,8.9c-3.3,0-6.3-0.8-8.3-2L316.5,640.4z"/>
	<path d="M347.6,607.9c0.1,1.8-1.3,3.3-3.4,3.3c-1.9,0-3.3-1.5-3.3-3.3c0-1.9,1.4-3.4,3.4-3.4C346.3,604.5,347.6,606,347.6,607.9z
		 M341.6,645.9v-29.7h5.4v29.7H341.6z"/>
	<path d="M381.5,616.2c-0.1,2.1-0.2,4.5-0.2,8.2v17.2c0,6.8-1.4,11-4.2,13.6c-2.9,2.7-7.1,3.6-10.8,3.6c-3.6,0-7.5-0.9-9.9-2.5
		l1.4-4.1c2,1.2,5,2.3,8.7,2.3c5.5,0,9.6-2.9,9.6-10.4v-3.3h-0.1c-1.7,2.8-4.8,5-9.5,5c-7.4,0-12.6-6.3-12.6-14.5
		c0-10.1,6.6-15.8,13.4-15.8c5.2,0,8,2.7,9.3,5.2h0.1l0.2-4.5H381.5z M375.9,627.9c0-0.9-0.1-1.7-0.3-2.5c-1-3.1-3.6-5.7-7.6-5.7
		c-5.2,0-8.8,4.4-8.8,11.2c0,5.8,2.9,10.7,8.8,10.7c3.3,0,6.3-2.1,7.5-5.5c0.3-0.9,0.4-2,0.4-2.9V627.9z"/>
	<path d="M389.9,624.3c0-3.1-0.1-5.6-0.2-8h4.8l0.3,4.9h0.1c1.5-2.8,4.9-5.6,9.8-5.6c4.1,0,10.5,2.5,10.5,12.6v17.7h-5.4v-17.1
		c0-4.8-1.8-8.8-6.9-8.8c-3.6,0-6.3,2.5-7.2,5.5c-0.2,0.7-0.4,1.6-0.4,2.5v17.9h-5.4V624.3z"/>
	<path d="M463.8,630.8c0,11-7.6,15.8-14.8,15.8c-8,0-14.2-5.9-14.2-15.3c0-9.9,6.5-15.8,14.7-15.8
		C458.1,615.5,463.8,621.7,463.8,630.8z M440.3,631.1c0,6.5,3.7,11.4,9,11.4c5.2,0,9-4.8,9-11.5c0-5-2.5-11.4-8.9-11.4
		C443,619.6,440.3,625.5,440.3,631.1z"/>
	<path d="M471.2,645.9v-25.6H467v-4.1h4.2v-1.4c0-4.2,0.9-8,3.4-10.4c2-2,4.7-2.8,7.2-2.8c1.9,0,3.6,0.4,4.6,0.9l-0.7,4.2
		c-0.8-0.4-1.9-0.7-3.4-0.7c-4.6,0-5.8,4.1-5.8,8.6v1.6h7.2v4.1h-7.2v25.6H471.2z"/>
	<path d="M508.1,607.7v8.5h7.7v4.1h-7.7v16c0,3.7,1,5.8,4.1,5.8c1.4,0,2.5-0.2,3.1-0.4l0.2,4.1c-1,0.4-2.7,0.7-4.8,0.7
		c-2.5,0-4.5-0.8-5.8-2.3c-1.5-1.6-2.1-4.2-2.1-7.7v-16.2h-4.6v-4.1h4.6v-7.1L508.1,607.7z"/>
	<path d="M521.9,625.5c0-3.5-0.1-6.5-0.2-9.3h4.7l0.2,5.8h0.2c1.4-4,4.6-6.5,8.2-6.5c0.6,0,1,0.1,1.5,0.2v5.1
		c-0.6-0.1-1.1-0.2-1.8-0.2c-3.8,0-6.5,2.9-7.2,6.9c-0.1,0.7-0.2,1.6-0.2,2.5v15.8h-5.3V625.5z"/>
	<path d="M558.1,645.9l-0.4-3.7h-0.2c-1.7,2.3-4.8,4.4-9.1,4.4c-6,0-9.1-4.2-9.1-8.5c0-7.2,6.4-11.1,17.9-11v-0.6
		c0-2.5-0.7-6.9-6.8-6.9c-2.8,0-5.6,0.9-7.7,2.2l-1.2-3.6c2.5-1.6,6-2.6,9.8-2.6c9.1,0,11.3,6.2,11.3,12.2v11.1
		c0,2.6,0.1,5.1,0.5,7.1H558.1z M557.3,630.8c-5.9-0.1-12.6,0.9-12.6,6.7c0,3.5,2.3,5.2,5.1,5.2c3.9,0,6.3-2.5,7.2-5
		c0.2-0.6,0.3-1.2,0.3-1.7V630.8z"/>
	<path d="M577.2,607.9c0.1,1.8-1.3,3.3-3.4,3.3c-1.9,0-3.3-1.5-3.3-3.3c0-1.9,1.4-3.4,3.4-3.4C576,604.5,577.2,606,577.2,607.9z
		 M571.2,645.9v-29.7h5.4v29.7H571.2z"/>
	<path d="M585.6,624.3c0-3.1-0.1-5.6-0.2-8h4.8l0.3,4.9h0.1c1.5-2.8,4.9-5.6,9.8-5.6c4.1,0,10.5,2.5,10.5,12.6v17.7h-5.4v-17.1
		c0-4.8-1.8-8.8-6.9-8.8c-3.6,0-6.3,2.5-7.2,5.5c-0.2,0.7-0.4,1.6-0.4,2.5v17.9h-5.4V624.3z"/>
	<path d="M625.7,607.9c0.1,1.8-1.3,3.3-3.4,3.3c-1.9,0-3.3-1.5-3.3-3.3c0-1.9,1.4-3.4,3.4-3.4C624.4,604.5,625.7,606,625.7,607.9z
		 M619.7,645.9v-29.7h5.4v29.7H619.7z"/>
	<path d="M634,624.3c0-3.1-0.1-5.6-0.2-8h4.8l0.3,4.9h0.1c1.5-2.8,4.9-5.6,9.8-5.6c4.1,0,10.5,2.5,10.5,12.6v17.7h-5.4v-17.1
		c0-4.8-1.8-8.8-6.9-8.8c-3.6,0-6.3,2.5-7.2,5.5c-0.2,0.7-0.4,1.6-0.4,2.5v17.9H634V624.3z"/>
	<path d="M693.7,616.2c-0.1,2.1-0.2,4.5-0.2,8.2v17.2c0,6.8-1.4,11-4.2,13.6c-2.9,2.7-7.1,3.6-10.8,3.6c-3.6,0-7.5-0.9-9.9-2.5
		l1.4-4.1c2,1.2,5,2.3,8.7,2.3c5.5,0,9.6-2.9,9.6-10.4v-3.3H688c-1.7,2.8-4.8,5-9.5,5c-7.4,0-12.6-6.3-12.6-14.5
		c0-10.1,6.6-15.8,13.4-15.8c5.2,0,8,2.7,9.3,5.2h0.1l0.2-4.5H693.7z M688.1,627.9c0-0.9-0.1-1.7-0.3-2.5c-1-3.1-3.6-5.7-7.6-5.7
		c-5.2,0-8.8,4.4-8.8,11.2c0,5.8,2.9,10.7,8.8,10.7c3.3,0,6.3-2.1,7.5-5.5c0.3-0.9,0.4-2,0.4-2.9V627.9z"/>
	<path d="M736.6,644.8c-1.4,0.7-4.5,1.7-8.5,1.7c-9,0-14.8-6.1-14.8-15.2c0-9.1,6.3-15.8,16-15.8c3.2,0,6,0.8,7.5,1.5l-1.2,4.2
		c-1.3-0.7-3.3-1.4-6.3-1.4c-6.8,0-10.5,5-10.5,11.2c0,6.9,4.4,11.1,10.3,11.1c3.1,0,5.1-0.8,6.6-1.5L736.6,644.8z"/>
	<path d="M769.4,630.8c0,11-7.6,15.8-14.8,15.8c-8,0-14.2-5.9-14.2-15.3c0-9.9,6.5-15.8,14.7-15.8
		C763.7,615.5,769.4,621.7,769.4,630.8z M745.9,631.1c0,6.5,3.7,11.4,9,11.4c5.2,0,9-4.8,9-11.5c0-5-2.5-11.4-8.9-11.4
		C748.6,619.6,745.9,625.5,745.9,631.1z"/>
	<path d="M776.2,624.3c0-3.1-0.1-5.6-0.2-8h4.8l0.3,4.9h0.1c1.5-2.8,4.9-5.6,9.8-5.6c4.1,0,10.5,2.5,10.5,12.6v17.7h-5.4v-17.1
		c0-4.8-1.8-8.8-6.9-8.8c-3.6,0-6.3,2.5-7.2,5.5c-0.2,0.7-0.4,1.6-0.4,2.5v17.9h-5.4V624.3z"/>
	<path d="M816.6,607.7v8.5h7.7v4.1h-7.7v16c0,3.7,1,5.8,4.1,5.8c1.4,0,2.5-0.2,3.1-0.4l0.2,4.1c-1,0.4-2.7,0.7-4.8,0.7
		c-2.5,0-4.5-0.8-5.8-2.3c-1.5-1.6-2.1-4.2-2.1-7.7v-16.2h-4.6v-4.1h4.6v-7.1L816.6,607.7z"/>
	<path d="M833,632.1c0.1,7.3,4.8,10.3,10.2,10.3c3.9,0,6.2-0.7,8.2-1.5l0.9,3.9c-1.9,0.9-5.2,1.8-9.9,1.8c-9.1,0-14.6-6-14.6-15
		s5.3-16,13.9-16c9.7,0,12.3,8.5,12.3,14c0,1.1-0.1,2-0.2,2.5H833z M848.8,628.2c0.1-3.4-1.4-8.8-7.5-8.8c-5.5,0-7.9,5-8.3,8.8
		H848.8z"/>
	<path d="M860.8,624.3c0-3.1-0.1-5.6-0.2-8h4.8l0.3,4.9h0.1c1.5-2.8,4.9-5.6,9.8-5.6c4.1,0,10.5,2.5,10.5,12.6v17.7h-5.4v-17.1
		c0-4.8-1.8-8.8-6.9-8.8c-3.6,0-6.3,2.5-7.2,5.5c-0.2,0.7-0.4,1.6-0.4,2.5v17.9h-5.4V624.3z"/>
	<path d="M901.1,607.7v8.5h7.7v4.1h-7.7v16c0,3.7,1,5.8,4.1,5.8c1.4,0,2.5-0.2,3.1-0.4l0.2,4.1c-1,0.4-2.7,0.7-4.8,0.7
		c-2.5,0-4.5-0.8-5.8-2.3c-1.5-1.6-2.1-4.2-2.1-7.7v-16.2h-4.6v-4.1h4.6v-7.1L901.1,607.7z"/>
</g>
<g>
	<path d="M159.9,812.1c3.3-0.5,7.1-0.9,11.4-0.9c7.7,0,13.1,1.8,16.8,5.2c3.7,3.4,5.8,8.2,5.8,14.9c0,6.8-2.1,12.3-6,16.1
		c-3.9,3.9-10.3,6-18.3,6c-3.8,0-7-0.2-9.7-0.5V812.1z M165.3,848.7c1.4,0.2,3.3,0.3,5.4,0.3c11.4,0,17.6-6.4,17.6-17.6
		c0.1-9.8-5.5-16-16.8-16c-2.8,0-4.8,0.2-6.3,0.6V848.7z"/>
	<path d="M203.9,839c0.1,7.3,4.8,10.3,10.2,10.3c3.9,0,6.2-0.7,8.2-1.5l0.9,3.9c-1.9,0.9-5.2,1.8-9.9,1.8c-9.1,0-14.6-6-14.6-15
		s5.3-16,13.9-16c9.7,0,12.3,8.5,12.3,14c0,1.1-0.1,2-0.2,2.5H203.9z M219.7,835.2c0.1-3.4-1.4-8.8-7.5-8.8c-5.5,0-7.9,5-8.3,8.8
		H219.7z"/>
	<path d="M233.7,823.2l5.8,16.7c1,2.7,1.8,5.2,2.4,7.6h0.2c0.7-2.5,1.5-4.9,2.5-7.6l5.8-16.7h5.6l-11.7,29.7h-5.2l-11.3-29.7H233.7z
		"/>
	<path d="M263.5,839c0.1,7.3,4.8,10.3,10.2,10.3c3.9,0,6.2-0.7,8.2-1.5l0.9,3.9c-1.9,0.9-5.2,1.8-9.9,1.8c-9.1,0-14.6-6-14.6-15
		s5.3-16,13.9-16c9.7,0,12.3,8.5,12.3,14c0,1.1-0.1,2-0.2,2.5H263.5z M279.4,835.2c0.1-3.4-1.4-8.8-7.5-8.8c-5.5,0-7.9,5-8.3,8.8
		H279.4z"/>
	<path d="M291.3,809.3h5.4v43.6h-5.4V809.3z"/>
	<path d="M332.7,837.8c0,11-7.6,15.8-14.8,15.8c-8,0-14.2-5.9-14.2-15.3c0-9.9,6.5-15.8,14.7-15.8
		C326.9,822.5,332.7,828.7,332.7,837.8z M309.1,838.1c0,6.5,3.7,11.4,9,11.4c5.2,0,9-4.8,9-11.5c0-5-2.5-11.4-8.9-11.4
		C311.9,826.6,309.1,832.5,309.1,838.1z"/>
	<path d="M339.5,832.9c0-3.8-0.1-6.9-0.2-9.7h4.8l0.2,5.1h0.1c2.2-3.6,5.7-5.8,10.6-5.8c7.2,0,12.6,6.1,12.6,15.1
		c0,10.7-6.5,16-13.5,16c-3.9,0-7.4-1.7-9.1-4.7h-0.1v16.1h-5.3V832.9z M344.8,840.8c0,0.8,0.1,1.5,0.2,2.2c1,3.7,4.2,6.3,8.1,6.3
		c5.7,0,9-4.7,9-11.5c0-6-3.1-11-8.8-11c-3.7,0-7.1,2.6-8.2,6.7c-0.2,0.7-0.4,1.5-0.4,2.2V840.8z"/>
	<path d="M374.4,831.2c0-3.1-0.1-5.6-0.2-8h4.7l0.2,4.8h0.2c1.7-2.8,4.4-5.5,9.3-5.5c4.1,0,7.1,2.5,8.4,6h0.1
		c0.9-1.7,2.1-2.9,3.3-3.9c1.8-1.4,3.7-2.1,6.6-2.1c3.9,0,9.8,2.6,9.8,12.9v17.5h-5.3v-16.8c0-5.7-2.1-9.1-6.4-9.1
		c-3.1,0-5.5,2.3-6.4,4.9c-0.2,0.7-0.4,1.7-0.4,2.7v18.4H393v-17.8c0-4.7-2.1-8.2-6.2-8.2c-3.4,0-5.8,2.7-6.7,5.4
		c-0.3,0.8-0.4,1.7-0.4,2.6v17.9h-5.3V831.2z"/>
	<path d="M428.6,839c0.1,7.3,4.8,10.3,10.2,10.3c3.9,0,6.2-0.7,8.2-1.5l0.9,3.9c-1.9,0.9-5.2,1.8-9.9,1.8c-9.1,0-14.6-6-14.6-15
		s5.3-16,13.9-16c9.7,0,12.3,8.5,12.3,14c0,1.1-0.1,2-0.2,2.5H428.6z M444.4,835.2c0.1-3.4-1.4-8.8-7.5-8.8c-5.5,0-7.9,5-8.3,8.8
		H444.4z"/>
	<path d="M456.3,831.2c0-3.1-0.1-5.6-0.2-8h4.8l0.3,4.9h0.1c1.5-2.8,4.9-5.6,9.8-5.6c4.1,0,10.5,2.5,10.5,12.6v17.7h-5.4v-17.1
		c0-4.8-1.8-8.8-6.9-8.8c-3.6,0-6.3,2.5-7.2,5.5c-0.2,0.7-0.4,1.6-0.4,2.5v17.9h-5.4V831.2z"/>
	<path d="M496.7,814.7v8.5h7.7v4.1h-7.7v16c0,3.7,1,5.8,4.1,5.8c1.4,0,2.5-0.2,3.1-0.4l0.2,4.1c-1,0.4-2.7,0.7-4.8,0.7
		c-2.5,0-4.5-0.8-5.8-2.3c-1.5-1.6-2.1-4.2-2.1-7.7v-16.2h-4.6v-4.1h4.6v-7.1L496.7,814.7z"/>
	<path d="M550.4,837.8c0,11-7.6,15.8-14.8,15.8c-8,0-14.2-5.9-14.2-15.3c0-9.9,6.5-15.8,14.7-15.8
		C544.6,822.5,550.4,828.7,550.4,837.8z M526.8,838.1c0,6.5,3.7,11.4,9,11.4c5.2,0,9-4.8,9-11.5c0-5-2.5-11.4-8.9-11.4
		C529.6,826.6,526.8,832.5,526.8,838.1z"/>
	<path d="M557.7,852.9v-25.6h-4.2v-4.1h4.2v-1.4c0-4.2,0.9-8,3.4-10.4c2-2,4.7-2.8,7.2-2.8c1.9,0,3.6,0.4,4.6,0.9l-0.7,4.2
		c-0.8-0.4-1.9-0.7-3.4-0.7c-4.6,0-5.8,4.1-5.8,8.6v1.6h7.2v4.1h-7.2v25.6H557.7z"/>
	<path d="M594.6,814.7v8.5h7.7v4.1h-7.7v16c0,3.7,1,5.8,4.1,5.8c1.4,0,2.5-0.2,3.1-0.4l0.2,4.1c-1,0.4-2.7,0.7-4.8,0.7
		c-2.5,0-4.5-0.8-5.8-2.3c-1.5-1.6-2.1-4.2-2.1-7.7v-16.2h-4.6v-4.1h4.6v-7.1L594.6,814.7z"/>
	<path d="M608.4,832.5c0-3.5-0.1-6.5-0.2-9.3h4.7l0.2,5.8h0.2c1.4-4,4.6-6.5,8.2-6.5c0.6,0,1,0.1,1.5,0.2v5.1
		c-0.6-0.1-1.1-0.2-1.8-0.2c-3.8,0-6.5,2.9-7.2,6.9c-0.1,0.7-0.2,1.6-0.2,2.5v15.8h-5.3V832.5z"/>
	<path d="M644.6,852.9l-0.4-3.7H644c-1.7,2.3-4.8,4.4-9.1,4.4c-6,0-9.1-4.2-9.1-8.5c0-7.2,6.4-11.1,17.9-11v-0.6
		c0-2.5-0.7-6.9-6.8-6.9c-2.8,0-5.6,0.9-7.7,2.2l-1.2-3.6c2.5-1.6,6-2.6,9.8-2.6c9.1,0,11.3,6.2,11.3,12.2v11.1
		c0,2.6,0.1,5.1,0.5,7.1H644.6z M643.8,837.8c-5.9-0.1-12.6,0.9-12.6,6.7c0,3.5,2.3,5.2,5.1,5.2c3.9,0,6.3-2.5,7.2-5
		c0.2-0.6,0.3-1.2,0.3-1.7V837.8z"/>
	<path d="M663.8,814.9c0.1,1.8-1.3,3.3-3.4,3.3c-1.9,0-3.3-1.5-3.3-3.3c0-1.9,1.4-3.4,3.4-3.4C662.5,811.5,663.8,813,663.8,814.9z
		 M657.8,852.9v-29.7h5.4v29.7H657.8z"/>
	<path d="M672.1,831.2c0-3.1-0.1-5.6-0.2-8h4.8l0.3,4.9h0.1c1.5-2.8,4.9-5.6,9.8-5.6c4.1,0,10.5,2.5,10.5,12.6v17.7H692v-17.1
		c0-4.8-1.8-8.8-6.9-8.8c-3.6,0-6.3,2.5-7.2,5.5c-0.2,0.7-0.4,1.6-0.4,2.5v17.9h-5.4V831.2z"/>
	<path d="M712.2,814.9c0.1,1.8-1.3,3.3-3.4,3.3c-1.9,0-3.3-1.5-3.3-3.3c0-1.9,1.4-3.4,3.4-3.4C710.9,811.5,712.2,813,712.2,814.9z
		 M706.2,852.9v-29.7h5.4v29.7H706.2z"/>
	<path d="M720.6,831.2c0-3.1-0.1-5.6-0.2-8h4.8l0.3,4.9h0.1c1.5-2.8,4.9-5.6,9.8-5.6c4.1,0,10.5,2.5,10.5,12.6v17.7h-5.4v-17.1
		c0-4.8-1.8-8.8-6.9-8.8c-3.6,0-6.3,2.5-7.2,5.5c-0.2,0.7-0.4,1.6-0.4,2.5v17.9h-5.4V831.2z"/>
	<path d="M780.2,823.2c-0.1,2.1-0.2,4.5-0.2,8.2v17.2c0,6.8-1.4,11-4.2,13.6c-2.9,2.7-7.1,3.6-10.8,3.6c-3.6,0-7.5-0.9-9.9-2.5
		l1.4-4.1c2,1.2,5,2.3,8.7,2.3c5.5,0,9.6-2.9,9.6-10.4v-3.3h-0.1c-1.7,2.8-4.8,5-9.5,5c-7.4,0-12.6-6.3-12.6-14.5
		c0-10.1,6.6-15.8,13.4-15.8c5.2,0,8,2.7,9.3,5.2h0.1l0.2-4.5H780.2z M774.6,834.9c0-0.9-0.1-1.7-0.3-2.5c-1-3.1-3.6-5.7-7.6-5.7
		c-5.2,0-8.8,4.4-8.8,11.2c0,5.8,2.9,10.7,8.8,10.7c3.3,0,6.3-2.1,7.5-5.5c0.3-0.9,0.4-2,0.4-2.9V834.9z"/>
	<path d="M802,831.2c0-3.1-0.1-5.6-0.2-8h4.7l0.2,4.8h0.2c1.7-2.8,4.4-5.5,9.3-5.5c4.1,0,7.1,2.5,8.4,6h0.1c0.9-1.7,2.1-2.9,3.3-3.9
		c1.8-1.4,3.7-2.1,6.6-2.1c3.9,0,9.8,2.6,9.8,12.9v17.5h-5.3v-16.8c0-5.7-2.1-9.1-6.4-9.1c-3.1,0-5.5,2.3-6.4,4.9
		c-0.2,0.7-0.4,1.7-0.4,2.7v18.4h-5.3v-17.8c0-4.7-2.1-8.2-6.2-8.2c-3.4,0-5.8,2.7-6.7,5.4c-0.3,0.8-0.4,1.7-0.4,2.6v17.9H802V831.2
		z"/>
	<path d="M880,837.8c0,11-7.6,15.8-14.8,15.8c-8,0-14.2-5.9-14.2-15.3c0-9.9,6.5-15.8,14.7-15.8C874.3,822.5,880,828.7,880,837.8z
		 M856.5,838.1c0,6.5,3.7,11.4,9,11.4c5.2,0,9-4.8,9-11.5c0-5-2.5-11.4-8.9-11.4C859.2,826.6,856.5,832.5,856.5,838.1z"/>
	<path d="M912.5,809.3v35.9c0,2.6,0.1,5.6,0.2,7.7h-4.8l-0.2-5.2h-0.1c-1.7,3.3-5.3,5.8-10.1,5.8c-7.2,0-12.7-6.1-12.7-15.1
		c-0.1-9.9,6.1-16,13.3-16c4.5,0,7.6,2.1,9,4.5h0.1v-17.7H912.5z M907.1,835.3c0-0.7-0.1-1.6-0.2-2.3c-0.8-3.4-3.7-6.3-7.8-6.3
		c-5.6,0-8.9,4.9-8.9,11.5c0,6,2.9,11,8.8,11c3.6,0,6.9-2.4,7.9-6.4c0.2-0.7,0.2-1.5,0.2-2.3V835.3z"/>
	<path d="M946.3,844.8c0,3.1,0.1,5.8,0.2,8.1h-4.8l-0.3-4.8h-0.1c-1.4,2.4-4.5,5.5-9.8,5.5c-4.7,0-10.3-2.6-10.3-13v-17.4h5.4v16.5
		c0,5.6,1.7,9.5,6.6,9.5c3.6,0,6.1-2.5,7.1-4.9c0.3-0.8,0.5-1.8,0.5-2.8v-18.2h5.4V844.8z"/>
	<path d="M955.3,809.3h5.4v43.6h-5.4V809.3z"/>
	<path d="M972.8,839c0.1,7.3,4.8,10.3,10.2,10.3c3.9,0,6.2-0.7,8.2-1.5l0.9,3.9c-1.9,0.9-5.2,1.8-9.9,1.8c-9.1,0-14.6-6-14.6-15
		s5.3-16,13.9-16c9.7,0,12.3,8.5,12.3,14c0,1.1-0.1,2-0.2,2.5H972.8z M988.6,835.2c0.1-3.4-1.4-8.8-7.5-8.8c-5.5,0-7.9,5-8.3,8.8
		H988.6z"/>
</g>
<g>
	<path d="M269.2,1000.1c3.3-0.5,7.1-0.9,11.4-0.9c7.7,0,13.1,1.8,16.8,5.2c3.7,3.4,5.8,8.2,5.8,14.9c0,6.8-2.1,12.3-6,16.1
		c-3.9,3.9-10.3,6-18.3,6c-3.8,0-7-0.2-9.7-0.5V1000.1z M274.5,1036.7c1.4,0.2,3.3,0.3,5.4,0.3c11.4,0,17.6-6.4,17.6-17.6
		c0.1-9.8-5.5-16-16.8-16c-2.8,0-4.8,0.2-6.3,0.6V1036.7z"/>
	<path d="M313.1,1027c0.1,7.3,4.8,10.3,10.2,10.3c3.9,0,6.2-0.7,8.2-1.5l0.9,3.9c-1.9,0.9-5.2,1.8-9.9,1.8c-9.1,0-14.6-6-14.6-15
		c0-9,5.3-16,13.9-16c9.7,0,12.3,8.5,12.3,14c0,1.1-0.1,2-0.2,2.5H313.1z M329,1023.1c0.1-3.4-1.4-8.8-7.5-8.8c-5.5,0-7.9,5-8.3,8.8
		H329z"/>
	<path d="M340.9,997.3h5.4v43.6h-5.4V997.3z"/>
	<path d="M361.4,1002.8c0.1,1.8-1.3,3.3-3.4,3.3c-1.9,0-3.3-1.5-3.3-3.3c0-1.9,1.4-3.4,3.4-3.4
		C360.1,999.5,361.4,1000.9,361.4,1002.8z M355.4,1040.9v-29.7h5.4v29.7H355.4z"/>
	<path d="M371.8,1011.2l5.8,16.7c1,2.7,1.8,5.2,2.4,7.6h0.2c0.7-2.5,1.5-4.9,2.5-7.6l5.8-16.7h5.6l-11.7,29.7h-5.2l-11.3-29.7H371.8
		z"/>
	<path d="M401.6,1027c0.1,7.3,4.8,10.3,10.2,10.3c3.9,0,6.2-0.7,8.2-1.5l0.9,3.9c-1.9,0.9-5.2,1.8-9.9,1.8c-9.1,0-14.6-6-14.6-15
		c0-9,5.3-16,13.9-16c9.7,0,12.3,8.5,12.3,14c0,1.1-0.1,2-0.2,2.5H401.6z M417.5,1023.1c0.1-3.4-1.4-8.8-7.5-8.8
		c-5.5,0-7.9,5-8.3,8.8H417.5z"/>
	<path d="M429.4,1020.4c0-3.5-0.1-6.5-0.2-9.3h4.7l0.2,5.8h0.2c1.4-4,4.6-6.5,8.2-6.5c0.6,0,1,0.1,1.5,0.2v5.1
		c-0.6-0.1-1.1-0.2-1.8-0.2c-3.8,0-6.5,2.9-7.2,6.9c-0.1,0.7-0.2,1.6-0.2,2.5v15.8h-5.3V1020.4z"/>
	<path d="M453,1011.2l6.5,17.6c0.7,2,1.4,4.3,1.9,6.1h0.1c0.6-1.8,1.2-4.1,1.9-6.2l5.9-17.4h5.7l-8.1,21.2
		c-3.9,10.2-6.5,15.4-10.2,18.6c-2.6,2.3-5.3,3.3-6.6,3.5l-1.4-4.5c1.4-0.4,3.1-1.3,4.7-2.6c1.5-1.2,3.3-3.3,4.5-6
		c0.2-0.6,0.4-1,0.4-1.3c0-0.3-0.1-0.7-0.4-1.4l-11-27.4H453z"/>
	<path d="M519.8,1025.8c0,11-7.6,15.8-14.8,15.8c-8,0-14.2-5.9-14.2-15.3c0-9.9,6.5-15.8,14.7-15.8
		C514,1010.5,519.8,1016.7,519.8,1025.8z M496.2,1026.1c0,6.5,3.7,11.4,9,11.4c5.2,0,9-4.8,9-11.5c0-5-2.5-11.4-8.9-11.4
		C499,1014.6,496.2,1020.4,496.2,1026.1z"/>
	<path d="M527.2,1040.9v-25.6H523v-4.1h4.2v-1.4c0-4.2,0.9-8,3.4-10.4c2-2,4.7-2.8,7.2-2.8c1.9,0,3.6,0.4,4.6,0.9l-0.7,4.2
		c-0.8-0.4-1.9-0.7-3.4-0.7c-4.6,0-5.8,4.1-5.8,8.6v1.6h7.2v4.1h-7.2v25.6H527.2z"/>
	<path d="M564.1,1002.6v8.5h7.7v4.1h-7.7v16c0,3.7,1,5.8,4.1,5.8c1.4,0,2.5-0.2,3.1-0.4l0.2,4.1c-1,0.4-2.7,0.7-4.8,0.7
		c-2.5,0-4.5-0.8-5.8-2.3c-1.5-1.6-2.1-4.2-2.1-7.7v-16.2h-4.6v-4.1h4.6v-7.1L564.1,1002.6z"/>
	<path d="M577.9,997.3h5.4v18.5h0.1c0.9-1.5,2.2-2.9,3.9-3.8c1.6-0.9,3.5-1.5,5.5-1.5c4,0,10.4,2.5,10.4,12.7v17.7h-5.4v-17.1
		c0-4.8-1.8-8.8-6.9-8.8c-3.5,0-6.3,2.5-7.2,5.4c-0.3,0.7-0.4,1.5-0.4,2.6v17.9h-5.4V997.3z"/>
	<path d="M614.9,1027c0.1,7.3,4.8,10.3,10.2,10.3c3.9,0,6.2-0.7,8.2-1.5l0.9,3.9c-1.9,0.9-5.2,1.8-9.9,1.8c-9.1,0-14.6-6-14.6-15
		c0-9,5.3-16,13.9-16c9.7,0,12.3,8.5,12.3,14c0,1.1-0.1,2-0.2,2.5H614.9z M630.8,1023.1c0.1-3.4-1.4-8.8-7.5-8.8
		c-5.5,0-7.9,5-8.3,8.8H630.8z"/>
	<path d="M655.7,1020.9c0-3.8-0.1-6.9-0.2-9.7h4.8l0.2,5.1h0.1c2.2-3.6,5.7-5.8,10.6-5.8c7.2,0,12.6,6.1,12.6,15.1
		c0,10.7-6.5,16-13.5,16c-3.9,0-7.4-1.7-9.1-4.7H661v16.1h-5.3V1020.9z M661,1028.8c0,0.8,0.1,1.5,0.2,2.2c1,3.7,4.2,6.3,8.1,6.3
		c5.7,0,9-4.7,9-11.5c0-6-3.1-11-8.8-11c-3.7,0-7.1,2.6-8.2,6.7c-0.2,0.7-0.4,1.5-0.4,2.2V1028.8z"/>
	<path d="M690.6,1020.4c0-3.5-0.1-6.5-0.2-9.3h4.7l0.2,5.8h0.2c1.4-4,4.6-6.5,8.2-6.5c0.6,0,1,0.1,1.5,0.2v5.1
		c-0.6-0.1-1.1-0.2-1.8-0.2c-3.8,0-6.5,2.9-7.2,6.9c-0.1,0.7-0.2,1.6-0.2,2.5v15.8h-5.3V1020.4z"/>
	<path d="M737,1025.8c0,11-7.6,15.8-14.8,15.8c-8,0-14.2-5.9-14.2-15.3c0-9.9,6.5-15.8,14.7-15.8
		C731.2,1010.5,737,1016.7,737,1025.8z M713.4,1026.1c0,6.5,3.7,11.4,9,11.4c5.2,0,9-4.8,9-11.5c0-5-2.5-11.4-8.9-11.4
		C716.1,1014.6,713.4,1020.4,713.4,1026.1z"/>
	<path d="M769.4,1011.2c-0.1,2.1-0.2,4.5-0.2,8.2v17.2c0,6.8-1.4,11-4.2,13.6c-2.9,2.7-7.1,3.6-10.8,3.6c-3.6,0-7.5-0.9-9.9-2.5
		l1.4-4.1c2,1.2,5,2.3,8.7,2.3c5.5,0,9.6-2.9,9.6-10.4v-3.3h-0.1c-1.7,2.8-4.8,5-9.5,5c-7.4,0-12.6-6.3-12.6-14.5
		c0-10.1,6.6-15.8,13.4-15.8c5.2,0,8,2.7,9.3,5.2h0.1l0.2-4.5H769.4z M763.8,1022.9c0-0.9-0.1-1.7-0.3-2.5c-1-3.1-3.6-5.7-7.6-5.7
		c-5.2,0-8.8,4.4-8.8,11.2c0,5.8,2.9,10.7,8.8,10.7c3.3,0,6.3-2.1,7.5-5.5c0.3-0.9,0.4-2,0.4-2.9V1022.9z"/>
	<path d="M777.7,1020.4c0-3.5-0.1-6.5-0.2-9.3h4.7l0.2,5.8h0.2c1.4-4,4.6-6.5,8.2-6.5c0.6,0,1,0.1,1.5,0.2v5.1
		c-0.6-0.1-1.1-0.2-1.8-0.2c-3.8,0-6.5,2.9-7.2,6.9c-0.1,0.7-0.2,1.6-0.2,2.5v15.8h-5.3V1020.4z"/>
	<path d="M813.9,1040.9l-0.4-3.7h-0.2c-1.7,2.3-4.8,4.4-9.1,4.4c-6,0-9.1-4.2-9.1-8.5c0-7.2,6.4-11.1,17.9-11v-0.6
		c0-2.5-0.7-6.9-6.8-6.9c-2.8,0-5.6,0.9-7.7,2.2l-1.2-3.6c2.5-1.6,6-2.6,9.8-2.6c9.1,0,11.3,6.2,11.3,12.2v11.1
		c0,2.6,0.1,5.1,0.5,7.1H813.9z M813.1,1025.7c-5.9-0.1-12.6,0.9-12.6,6.7c0,3.5,2.3,5.2,5.1,5.2c3.9,0,6.3-2.5,7.2-5
		c0.2-0.6,0.3-1.2,0.3-1.7V1025.7z"/>
	<path d="M827.1,1019.2c0-3.1-0.1-5.6-0.2-8h4.7l0.2,4.8h0.2c1.7-2.8,4.4-5.5,9.3-5.5c4.1,0,7.1,2.5,8.4,6h0.1
		c0.9-1.7,2.1-2.9,3.3-3.9c1.8-1.4,3.7-2.1,6.6-2.1c3.9,0,9.8,2.6,9.8,12.9v17.5h-5.3v-16.8c0-5.7-2.1-9.1-6.4-9.1
		c-3.1,0-5.5,2.3-6.4,4.9c-0.2,0.7-0.4,1.7-0.4,2.7v18.4h-5.3v-17.8c0-4.7-2.1-8.2-6.2-8.2c-3.4,0-5.8,2.7-6.7,5.4
		c-0.3,0.8-0.4,1.7-0.4,2.6v17.9h-5.3V1019.2z"/>
	<path d="M430.4,1098.9l-0.4-3.7h-0.2c-1.7,2.3-4.8,4.4-9.1,4.4c-6,0-9.1-4.2-9.1-8.5c0-7.2,6.4-11.1,17.9-11v-0.6
		c0-2.5-0.7-6.9-6.8-6.9c-2.8,0-5.6,0.9-7.7,2.2l-1.2-3.6c2.5-1.6,6-2.6,9.8-2.6c9.1,0,11.3,6.2,11.3,12.2v11.1
		c0,2.6,0.1,5.1,0.5,7.1H430.4z M429.6,1083.7c-5.9-0.1-12.6,0.9-12.6,6.7c0,3.5,2.3,5.2,5.1,5.2c3.9,0,6.3-2.5,7.2-5
		c0.2-0.6,0.3-1.2,0.3-1.7V1083.7z"/>
	<path d="M464.7,1097.8c-1.4,0.7-4.5,1.7-8.5,1.7c-9,0-14.8-6.1-14.8-15.2c0-9.1,6.3-15.8,16-15.8c3.2,0,6,0.8,7.5,1.5l-1.2,4.2
		c-1.3-0.7-3.3-1.4-6.3-1.4c-6.8,0-10.5,5-10.5,11.2c0,6.9,4.4,11.1,10.3,11.1c3.1,0,5.1-0.8,6.6-1.5L464.7,1097.8z"/>
	<path d="M471,1078.4c0-3.5-0.1-6.5-0.2-9.3h4.7l0.2,5.8h0.2c1.4-4,4.6-6.5,8.2-6.5c0.6,0,1,0.1,1.5,0.2v5.1
		c-0.6-0.1-1.1-0.2-1.8-0.2c-3.8,0-6.5,2.9-7.2,6.9c-0.1,0.7-0.2,1.6-0.2,2.5v15.8H471V1078.4z"/>
	<path d="M517.4,1083.8c0,11-7.6,15.8-14.8,15.8c-8,0-14.2-5.9-14.2-15.3c0-9.9,6.5-15.8,14.7-15.8
		C511.6,1068.5,517.4,1074.7,517.4,1083.8z M493.8,1084.1c0,6.5,3.7,11.4,9,11.4c5.2,0,9-4.8,9-11.5c0-5-2.5-11.4-8.9-11.4
		C496.6,1072.6,493.8,1078.4,493.8,1084.1z"/>
	<path d="M523.5,1093.4c1.6,1,4.4,2.1,7.1,2.1c3.9,0,5.8-2,5.8-4.4c0-2.6-1.5-4-5.5-5.5c-5.3-1.9-7.9-4.8-7.9-8.4
		c0-4.8,3.9-8.7,10.3-8.7c3,0,5.6,0.9,7.3,1.8l-1.4,3.9c-1.2-0.7-3.3-1.7-6.1-1.7c-3.2,0-5,1.8-5,4.1c0,2.5,1.8,3.6,5.6,5
		c5.2,2,7.8,4.5,7.8,9c0,5.2-4.1,8.9-11.1,8.9c-3.3,0-6.3-0.8-8.3-2L523.5,1093.4z"/>
	<path d="M547.8,1093.4c1.6,1,4.4,2.1,7.1,2.1c3.9,0,5.8-2,5.8-4.4c0-2.6-1.5-4-5.5-5.5c-5.3-1.9-7.9-4.8-7.9-8.4
		c0-4.8,3.9-8.7,10.3-8.7c3,0,5.6,0.9,7.3,1.8l-1.4,3.9c-1.2-0.7-3.3-1.7-6.1-1.7c-3.2,0-5,1.8-5,4.1c0,2.5,1.8,3.6,5.6,5
		c5.2,2,7.8,4.5,7.8,9c0,5.2-4.1,8.9-11.1,8.9c-3.3,0-6.3-0.8-8.3-2L547.8,1093.4z"/>
	<path d="M585.8,1077.2c0-3.1-0.1-5.6-0.2-8h4.7l0.2,4.8h0.2c1.7-2.8,4.4-5.5,9.3-5.5c4.1,0,7.1,2.5,8.4,6h0.1
		c0.9-1.7,2.1-2.9,3.3-3.9c1.8-1.4,3.7-2.1,6.6-2.1c3.9,0,9.8,2.6,9.8,12.9v17.5h-5.3v-16.8c0-5.7-2.1-9.1-6.4-9.1
		c-3.1,0-5.5,2.3-6.4,4.9c-0.2,0.7-0.4,1.7-0.4,2.7v18.4h-5.3v-17.8c0-4.7-2.1-8.2-6.2-8.2c-3.4,0-5.8,2.7-6.7,5.4
		c-0.3,0.8-0.4,1.7-0.4,2.6v17.9h-5.3V1077.2z"/>
	<path d="M640,1085c0.1,7.3,4.8,10.3,10.2,10.3c3.9,0,6.2-0.7,8.2-1.5l0.9,3.9c-1.9,0.9-5.2,1.8-9.9,1.8c-9.1,0-14.6-6-14.6-15
		c0-9,5.3-16,13.9-16c9.7,0,12.3,8.5,12.3,14c0,1.1-0.1,2-0.2,2.5H640z M655.8,1081.1c0.1-3.4-1.4-8.8-7.5-8.8c-5.5,0-7.9,5-8.3,8.8
		H655.8z"/>
	<path d="M693.4,1055.3v35.9c0,2.6,0.1,5.6,0.2,7.7h-4.8l-0.2-5.2h-0.1c-1.7,3.3-5.3,5.8-10.1,5.8c-7.2,0-12.7-6.1-12.7-15.1
		c-0.1-9.9,6.1-16,13.3-16c4.5,0,7.6,2.1,9,4.5h0.1v-17.7H693.4z M688,1081.3c0-0.7-0.1-1.6-0.2-2.3c-0.8-3.4-3.7-6.3-7.8-6.3
		c-5.6,0-8.9,4.9-8.9,11.5c0,6,2.9,11,8.8,11c3.6,0,6.9-2.4,7.9-6.4c0.2-0.7,0.2-1.5,0.2-2.3V1081.3z"/>
	<path d="M708.4,1060.8c0.1,1.8-1.3,3.3-3.4,3.3c-1.9,0-3.3-1.5-3.3-3.3c0-1.9,1.4-3.4,3.4-3.4
		C707.1,1057.5,708.4,1058.9,708.4,1060.8z M702.4,1098.9v-29.7h5.4v29.7H702.4z"/>
	<path d="M733.2,1098.9l-0.4-3.7h-0.2c-1.7,2.3-4.8,4.4-9.1,4.4c-6,0-9.1-4.2-9.1-8.5c0-7.2,6.4-11.1,17.9-11v-0.6
		c0-2.5-0.7-6.9-6.8-6.9c-2.8,0-5.6,0.9-7.7,2.2l-1.2-3.6c2.5-1.6,6-2.6,9.8-2.6c9.1,0,11.3,6.2,11.3,12.2v11.1
		c0,2.6,0.1,5.1,0.5,7.1H733.2z M732.4,1083.7c-5.9-0.1-12.6,0.9-12.6,6.7c0,3.5,2.3,5.2,5.1,5.2c3.9,0,6.3-2.5,7.2-5
		c0.2-0.6,0.3-1.2,0.3-1.7V1083.7z"/>
</g>
<g>
	<path d="M313.8,1264.4l-4.3,13H304l14.1-41.4h6.4l14.1,41.4h-5.7l-4.4-13H313.8z M327.4,1260.2l-4.1-11.9c-0.9-2.7-1.5-5.2-2.1-7.6
		h-0.1c-0.6,2.5-1.3,5-2.1,7.5l-4.1,12H327.4z"/>
	<path d="M343.4,1271.9c1.6,1,4.4,2.1,7.1,2.1c3.9,0,5.8-2,5.8-4.4c0-2.6-1.5-4-5.5-5.5c-5.3-1.9-7.9-4.8-7.9-8.4
		c0-4.8,3.9-8.7,10.3-8.7c3,0,5.6,0.9,7.3,1.8l-1.4,3.9c-1.2-0.7-3.3-1.7-6.1-1.7c-3.2,0-5,1.8-5,4.1c0,2.5,1.8,3.6,5.6,5
		c5.2,2,7.8,4.5,7.8,9c0,5.2-4.1,8.9-11.1,8.9c-3.3,0-6.3-0.8-8.3-2L343.4,1271.9z"/>
	<path d="M367.7,1271.9c1.6,1,4.4,2.1,7.1,2.1c3.9,0,5.8-2,5.8-4.4c0-2.6-1.5-4-5.5-5.5c-5.3-1.9-7.9-4.8-7.9-8.4
		c0-4.8,3.9-8.7,10.3-8.7c3,0,5.6,0.9,7.3,1.8l-1.4,3.9c-1.2-0.7-3.3-1.7-6.1-1.7c-3.2,0-5,1.8-5,4.1c0,2.5,1.8,3.6,5.6,5
		c5.2,2,7.8,4.5,7.8,9c0,5.2-4.1,8.9-11.1,8.9c-3.3,0-6.3-0.8-8.3-2L367.7,1271.9z"/>
	<path d="M395.8,1263.5c0.1,7.3,4.8,10.3,10.2,10.3c3.9,0,6.2-0.7,8.2-1.5l0.9,3.9c-1.9,0.9-5.2,1.8-9.9,1.8c-9.1,0-14.6-6-14.6-15
		c0-9,5.3-16,13.9-16c9.7,0,12.3,8.5,12.3,14c0,1.1-0.1,2-0.2,2.5H395.8z M411.6,1259.7c0.1-3.4-1.4-8.8-7.5-8.8
		c-5.5,0-7.9,5-8.3,8.8H411.6z"/>
	<path d="M422.8,1271.9c1.6,1,4.4,2.1,7.1,2.1c3.9,0,5.8-2,5.8-4.4c0-2.6-1.5-4-5.5-5.5c-5.3-1.9-7.9-4.8-7.9-8.4
		c0-4.8,3.9-8.7,10.3-8.7c3,0,5.6,0.9,7.3,1.8l-1.4,3.9c-1.2-0.7-3.3-1.7-6.1-1.7c-3.2,0-5,1.8-5,4.1c0,2.5,1.8,3.6,5.6,5
		c5.2,2,7.8,4.5,7.8,9c0,5.2-4.1,8.9-11.1,8.9c-3.3,0-6.3-0.8-8.3-2L422.8,1271.9z"/>
	<path d="M447.1,1271.9c1.6,1,4.4,2.1,7.1,2.1c3.9,0,5.8-2,5.8-4.4c0-2.6-1.5-4-5.5-5.5c-5.3-1.9-7.9-4.8-7.9-8.4
		c0-4.8,3.9-8.7,10.3-8.7c3,0,5.6,0.9,7.3,1.8l-1.4,3.9c-1.2-0.7-3.3-1.7-6.1-1.7c-3.2,0-5,1.8-5,4.1c0,2.5,1.8,3.6,5.6,5
		c5.2,2,7.8,4.5,7.8,9c0,5.2-4.1,8.9-11.1,8.9c-3.3,0-6.3-0.8-8.3-2L447.1,1271.9z"/>
	<path d="M472.1,1255.7c0-3.1-0.1-5.6-0.2-8h4.7l0.2,4.8h0.2c1.7-2.8,4.4-5.5,9.3-5.5c4.1,0,7.1,2.5,8.4,6h0.1
		c0.9-1.7,2.1-2.9,3.3-3.9c1.8-1.4,3.7-2.1,6.6-2.1c3.9,0,9.8,2.6,9.8,12.9v17.5h-5.3v-16.8c0-5.7-2.1-9.1-6.4-9.1
		c-3.1,0-5.5,2.3-6.4,4.9c-0.2,0.7-0.4,1.7-0.4,2.7v18.4h-5.3v-17.8c0-4.7-2.1-8.2-6.2-8.2c-3.4,0-5.8,2.7-6.7,5.4
		c-0.3,0.8-0.4,1.7-0.4,2.6v17.9h-5.3V1255.7z"/>
	<path d="M526.3,1263.5c0.1,7.3,4.8,10.3,10.2,10.3c3.9,0,6.2-0.7,8.2-1.5l0.9,3.9c-1.9,0.9-5.2,1.8-9.9,1.8c-9.1,0-14.6-6-14.6-15
		c0-9,5.3-16,13.9-16c9.7,0,12.3,8.5,12.3,14c0,1.1-0.1,2-0.2,2.5H526.3z M542.2,1259.7c0.1-3.4-1.4-8.8-7.5-8.8
		c-5.5,0-7.9,5-8.3,8.8H542.2z"/>
	<path d="M554.1,1255.7c0-3.1-0.1-5.6-0.2-8h4.8l0.3,4.9h0.1c1.5-2.8,4.9-5.6,9.8-5.6c4.1,0,10.5,2.5,10.5,12.6v17.7H574v-17.1
		c0-4.8-1.8-8.8-6.9-8.8c-3.6,0-6.3,2.5-7.2,5.5c-0.2,0.7-0.4,1.6-0.4,2.5v17.9h-5.4V1255.7z"/>
	<path d="M594.4,1239.2v8.5h7.7v4.1h-7.7v16c0,3.7,1,5.8,4.1,5.8c1.4,0,2.5-0.2,3.1-0.4l0.2,4.1c-1,0.4-2.7,0.7-4.8,0.7
		c-2.5,0-4.5-0.8-5.8-2.3c-1.5-1.6-2.1-4.2-2.1-7.7v-16.2h-4.6v-4.1h4.6v-7.1L594.4,1239.2z"/>
	<path d="M648.1,1262.3c0,11-7.6,15.8-14.8,15.8c-8,0-14.2-5.9-14.2-15.3c0-9.9,6.5-15.8,14.7-15.8
		C642.3,1247,648.1,1253.2,648.1,1262.3z M624.5,1262.6c0,6.5,3.7,11.4,9,11.4c5.2,0,9-4.8,9-11.5c0-5-2.5-11.4-8.9-11.4
		C627.3,1251.1,624.5,1257,624.5,1262.6z"/>
	<path d="M655.5,1277.4v-25.6h-4.2v-4.1h4.2v-1.4c0-4.2,0.9-8,3.4-10.4c2-2,4.7-2.8,7.2-2.8c1.9,0,3.6,0.4,4.6,0.9l-0.7,4.2
		c-0.8-0.4-1.9-0.7-3.4-0.7c-4.6,0-5.8,4.1-5.8,8.6v1.6h7.2v4.1h-7.2v25.6H655.5z"/>
	<path d="M685.9,1257c0-3.5-0.1-6.5-0.2-9.3h4.7l0.2,5.8h0.2c1.4-4,4.6-6.5,8.2-6.5c0.6,0,1,0.1,1.5,0.2v5.1
		c-0.6-0.1-1.1-0.2-1.8-0.2c-3.8,0-6.5,2.9-7.2,6.9c-0.1,0.7-0.2,1.6-0.2,2.5v15.8h-5.3V1257z"/>
	<path d="M708.3,1263.5c0.1,7.3,4.8,10.3,10.2,10.3c3.9,0,6.2-0.7,8.2-1.5l0.9,3.9c-1.9,0.9-5.2,1.8-9.9,1.8c-9.1,0-14.6-6-14.6-15
		c0-9,5.3-16,13.9-16c9.7,0,12.3,8.5,12.3,14c0,1.1-0.1,2-0.2,2.5H708.3z M724.2,1259.7c0.1-3.4-1.4-8.8-7.5-8.8
		c-5.5,0-7.9,5-8.3,8.8H724.2z"/>
	<path d="M735.3,1271.9c1.6,1,4.4,2.1,7.1,2.1c3.9,0,5.8-2,5.8-4.4c0-2.6-1.5-4-5.5-5.5c-5.3-1.9-7.9-4.8-7.9-8.4
		c0-4.8,3.9-8.7,10.3-8.7c3,0,5.6,0.9,7.3,1.8l-1.4,3.9c-1.2-0.7-3.3-1.7-6.1-1.7c-3.2,0-5,1.8-5,4.1c0,2.5,1.8,3.6,5.6,5
		c5.2,2,7.8,4.5,7.8,9c0,5.2-4.1,8.9-11.1,8.9c-3.3,0-6.3-0.8-8.3-2L735.3,1271.9z"/>
	<path d="M785.2,1269.3c0,3.1,0.1,5.8,0.2,8.1h-4.8l-0.3-4.8h-0.1c-1.4,2.4-4.5,5.5-9.8,5.5c-4.7,0-10.3-2.6-10.3-13v-17.4h5.4v16.5
		c0,5.6,1.7,9.5,6.6,9.5c3.6,0,6.1-2.5,7.1-4.9c0.3-0.8,0.5-1.8,0.5-2.8v-18.2h5.4V1269.3z"/>
	<path d="M794.2,1233.8h5.4v43.6h-5.4V1233.8z"/>
	<path d="M815.2,1239.2v8.5h7.7v4.1h-7.7v16c0,3.7,1,5.8,4.1,5.8c1.4,0,2.5-0.2,3.1-0.4l0.2,4.1c-1,0.4-2.7,0.7-4.8,0.7
		c-2.5,0-4.5-0.8-5.8-2.3c-1.5-1.6-2.1-4.2-2.1-7.7v-16.2h-4.6v-4.1h4.6v-7.1L815.2,1239.2z"/>
	<path d="M828.3,1271.9c1.6,1,4.4,2.1,7.1,2.1c3.9,0,5.8-2,5.8-4.4c0-2.6-1.5-4-5.5-5.5c-5.3-1.9-7.9-4.8-7.9-8.4
		c0-4.8,3.9-8.7,10.3-8.7c3,0,5.6,0.9,7.3,1.8l-1.4,3.9c-1.2-0.7-3.3-1.7-6.1-1.7c-3.2,0-5,1.8-5,4.1c0,2.5,1.8,3.6,5.6,5
		c5.2,2,7.8,4.5,7.8,9c0,5.2-4.1,8.9-11.1,8.9c-3.3,0-6.3-0.8-8.3-2L828.3,1271.9z"/>
</g>
</svg>
