<?xml version="1.0" encoding="utf-8"?>
<!-- Generator: Adobe Illustrator 19.0.0, SVG Export Plug-In . SVG Version: 6.00 Build 0)  -->
<svg version="1.1" xmlns="http://www.w3.org/2000/svg" xmlns:xlink="http://www.w3.org/1999/xlink" x="0px" y="0px"
	 viewBox="0 0 780.4 421" style="enable-background:new 0 0 780.4 421;" xml:space="preserve">
<style type="text/css">
	.st0{fill-rule:evenodd;clip-rule:evenodd;fill:#6F7478;}
	.st1{fill-rule:evenodd;clip-rule:evenodd;fill:#27557D;}
	.st2{fill-rule:evenodd;clip-rule:evenodd;fill:#969DA3;}
	.st3{fill-rule:evenodd;clip-rule:evenodd;fill:#FFFFFF;}
	.st4{fill-rule:evenodd;clip-rule:evenodd;fill:#D1A886;}
	.st5{fill-rule:evenodd;clip-rule:evenodd;fill:#FCB024;}
	.st6{fill-rule:evenodd;clip-rule:evenodd;fill:#CCCCCC;}
	.st7{fill-rule:evenodd;clip-rule:evenodd;fill:#3F73A1;}
	.st8{fill-rule:evenodd;clip-rule:evenodd;fill:#F2CAA9;}
	.st9{fill-rule:evenodd;clip-rule:evenodd;fill:#3B1911;}
	.st10{fill-rule:evenodd;clip-rule:evenodd;fill:#FFB269;}
	.st11{fill-rule:evenodd;clip-rule:evenodd;fill:#C5D0D9;}
	.st12{fill:#C5D0D9;}
	.st13{fill-rule:evenodd;clip-rule:evenodd;fill:#4C6173;}
	.st14{fill-rule:evenodd;clip-rule:evenodd;fill:#688096;}
	.st15{fill-rule:evenodd;clip-rule:evenodd;fill:#B55C46;}
	.st16{fill-rule:evenodd;clip-rule:evenodd;fill:#99780B;}
	.st17{fill-rule:evenodd;clip-rule:evenodd;fill:#FC8D25;}
	.st18{fill-rule:evenodd;clip-rule:evenodd;fill:#6E4D28;}
	.st19{fill-rule:evenodd;clip-rule:evenodd;fill:#93B9DB;}
	.st20{fill-rule:evenodd;clip-rule:evenodd;fill:#6B451D;}
</style>
<g id="Background">
</g>
<g id="Objects">
	<g>
		<g>
			<g>
				<path class="st0" d="M700.5,155.6c18.9-4.5,45.1-15.2,48.5,0.1c4.1,18.1,9.1,61.1,14.4,102.9c1.1,9-10.4,13.7-13.3,14.5
					c-12.8,3.9-23.9,5.1-38.1,7L700.5,155.6C700.5,155.7,700.5,155.6,700.5,155.6z"/>
				<path class="st0" d="M643.3,155.6c-23.8-5.7-42.7-18.9-46.9-0.2c-4.3,19.6-9.1,62.5-14.1,102.5c-1.3,10.3,9.4,14.7,12.9,15.6
					c12.3,3.2,23,4.8,36.6,6.6L643.3,155.6C643.3,155.7,643.3,155.6,643.3,155.6z"/>
				<path class="st1" d="M624.7,277.7l-0.6,1.5c29.3,3.7,65.4,3.8,94.8,0.2c-0.3-0.6-0.5-1.1-0.8-1.7H624.7z"/>
				<path class="st2" d="M612.9,277.4c6.5-18.8-8.3-106.6-16.5-122.7c4.7-16.6,48.1-20.2,59.7-29.7c5.5,4.8,9.4,5.9,15.6,5.9
					c6.2,0,10.3-1.3,15.8-6.1c8.6,7,53.4,12.4,61.1,29c-8.7,18.5-24.7,106.6-17.8,123.5C701.5,283,643,283.4,612.9,277.4z"/>
				<polygon class="st3" points="642.4,132.9 641,169.8 671.9,248.3 702.3,169.8 700.5,131.9 687.5,124.8 656.1,125 				"/>
				<rect x="656.1" y="112.1" class="st4" width="30.9" height="32"/>
				<path class="st5" d="M676.8,163.8l2.1-4.5l-7.3-17.6l-7.2,17.3l2.3,4.8C670.1,163.8,673.5,163.8,676.8,163.8z"/>
				<polygon class="st6" points="656.1,125 671.7,141.6 660.6,171.4 646.8,131.1 				"/>
				<polygon class="st6" points="687.5,124.8 671.7,141.6 682.8,171.4 696.7,130.9 				"/>
				<polygon class="st5" points="666.8,174.9 676.8,174.9 682,224.9 671.7,248.7 661.7,224.9 				"/>
				<polygon class="st3" points="656.1,125 671.7,141.6 660.3,164 646.8,131.1 				"/>
				<polygon class="st7" points="646.9,130.3 671.7,248.7 634.9,178.6 641,169.8 629.2,160.7 640.4,133.9 				"/>
				<polygon class="st7" points="697,130 671.7,248.7 708.5,178.6 702.3,169.8 714.1,160.7 706.2,134.3 				"/>
				<polygon class="st3" points="687.5,124.8 671.7,141.6 683,164 696.7,130.9 				"/>
				<path class="st5" d="M666.8,163h10c2.2,4.6,2.1,8.7,0,12.6h-10C664.7,171.6,664.6,167.6,666.8,163z"/>
				<path class="st1" d="M670.3,282c0.3-8.7,0.9-19,2-34.5c1.1,15.5,1.8,25.8,2.1,34.5C673,282,671.6,282,670.3,282z"/>
				<polygon class="st3" points="637.7,133.9 641.5,169.3 672.3,247.3 702.6,169.3 706.4,133.9 691.8,124.4 652.4,124.4 				"/>
				<rect x="652.4" y="111.8" class="st4" width="39" height="31.8"/>
				<path class="st8" d="M672.1,130.5c15.4,0,29.6-17.6,37.1-39.2c0.4,0.5,0.9,0.7,1.5,0.8c3.1,0.5,6.6-5.2,7.8-12.8
					c1.3-7.6-0.2-14.2-3.3-14.7c-0.2,0-0.4,0-0.7,0c1.5-26.7-9.6-51.4-42.5-51.4c-33,0-44.1,24.7-42.5,51.4c-0.3-0.1-0.7-0.1-1,0
					c-3.1,0.5-4.5,7.1-3.3,14.7c1.3,7.6,4.8,13.4,7.8,12.8c0.7-0.1,1.2-0.5,1.7-1.1C642.3,112.8,656.6,130.5,672.1,130.5z"/>
				<path class="st9" d="M714.6,64.6c1.5-26.7-9.6-51.4-42.6-51.4c-33,0-44.1,24.7-42.6,51.4c2.7,0.7,5.5,5.6,6.7,11.9
					c2.2,1.5,3.7,0.6,3.7-4.8c0-15.9,2-30,12.4-33.3c9.9-3.2,12.1,3.8,19.7,3.8c7.6,0,10-6.6,19.7-3.8c10.1,2.9,12.4,17.4,12.4,33.3
					c0,5.2,1.4,6.2,3.5,4.9C708.8,70.1,711.8,64.9,714.6,64.6z"/>
				<path class="st10" d="M677.2,163.3l2.1-4.5l-7.2-17.5l-7.1,17.3l2.3,4.8C670.5,163.3,673.8,163.3,677.2,163.3z"/>
				<polygon class="st6" points="652.4,124.4 672.1,141.2 661,170.8 643.2,130.5 				"/>
				<polygon class="st0" points="643.2,130.5 672.1,247.7 631.5,183.1 636.8,171.8 625.3,162.6 637.7,133.9 				"/>
				<polygon class="st6" points="691.8,124.4 672.1,141.2 683.1,170.8 700.9,130.5 				"/>
				<polygon class="st10" points="667.2,174.2 677.2,174.2 682.3,224.1 672.1,247.7 662.2,224.1 				"/>
				<path class="st9" d="M701.8,30.6c-4.3,8.5-44.3,15.6-58.5,16.7C629.1,48.5,639.6,8.6,701.8,30.6z"/>
				<path class="st9" d="M681.3,30.6c1.8,8.5,23.2,27.1,29.3,28.3C716.8,60,708.1,8.6,681.3,30.6z"/>
				<polygon class="st3" points="652.4,124.4 672.1,141.2 660.8,163.5 643.2,130.5 				"/>
				<polygon class="st2" points="643.2,130.5 672.1,247.7 635.5,177.9 641.5,169.3 629.8,160.2 637.7,133.9 				"/>
				<polygon class="st0" points="700.9,130.5 672.1,247.7 712.6,183.1 707.3,171.8 718.8,162.6 706.4,133.9 				"/>
				<polygon class="st2" points="700.9,130.5 672.1,247.7 708.7,177.9 702.6,169.3 714.3,160.2 706.4,133.9 				"/>
				<polygon class="st3" points="691.8,124.4 672.1,141.2 683.4,163.5 700.9,130.5 				"/>
				<path class="st10" d="M667.2,162.4h9.9c2.2,4.6,2,8.6,0,12.6h-9.9C665.2,171.1,665,167,667.2,162.4z"/>
				<path class="st1" d="M669.6,282c1.6,0,3.3,0,4.9,0c0.6-8.4-1.2-30.8-2.4-34.5C670.8,250.4,669,273.1,669.6,282z"/>
			</g>
			<polygon class="st11" points="731.3,265.2 745.1,176 595.4,176 609.2,265.2 			"/>
			<rect x="573.4" y="263.6" class="st11" width="193.8" height="20.7"/>
			<g>
				<path class="st12" d="M631.7,58.2c0,1.9-1.6,3.5-3.5,3.5s-3.5-1.6-3.5-3.5c0-13.4,5.4-25.6,14.1-34.4
					c8.7-8.8,20.7-14.3,33.9-14.3c13.2,0,25.2,5.5,33.9,14.3s14.1,21,14.1,34.4c0,1.9-1.5,3.5-3.5,3.5c-1.9,0-3.5-1.6-3.5-3.5
					c0-11.5-4.6-21.9-12.1-29.4c-7.4-7.6-17.7-12.2-29-12.2c-11.3,0-21.6,4.7-29,12.2C636.4,36.3,631.7,46.7,631.7,58.2z"/>
				<path class="st11" d="M630.5,49.9c2.6,0,5,0.6,7.3,1.6v46.6c-2.3,1-4.7,1.6-7.3,1.6c-5.3,0-10.1-2.4-13.8-6.2V56.1
					C620.4,52.2,625.2,49.9,630.5,49.9z"/>
				<path class="st11" d="M714,49.9c-2.7,0-5.3,0.6-7.7,1.6v46.6c2.4,1,5,1.6,7.7,1.6c5.6,0,10.6-2.4,14.5-6.2V56.1
					C724.6,52.2,719.5,49.9,714,49.9z"/>
			</g>
		</g>
		<g>
			<g>
				<path class="st13" d="M425.7,155.6c18.9-4.5,45.1-15.2,48.5,0.1c4.1,18.1,9.1,61.1,14.4,102.9c1.1,9-10.4,13.7-13.3,14.5
					c-12.8,3.9-23.9,5.1-38.1,7L425.7,155.6C425.6,155.7,425.6,155.6,425.7,155.6z"/>
				<path class="st13" d="M368.4,155.6c-23.8-5.7-42.7-18.9-46.9-0.2c-4.3,19.6-9.1,62.5-14.1,102.5c-1.3,10.3,9.4,14.7,12.9,15.6
					c12.3,3.2,23,4.8,36.6,6.6L368.4,155.6C368.5,155.7,368.4,155.6,368.4,155.6z"/>
				<path class="st1" d="M349.8,277.7l-0.6,1.5c29.3,3.7,65.4,3.8,94.8,0.2c-0.3-0.6-0.5-1.1-0.8-1.7H349.8z"/>
				<path class="st14" d="M338.1,277.4c6.5-18.8-8.3-106.6-16.5-122.7c4.7-16.6,48.1-20.2,59.7-29.7c5.5,4.8,9.4,5.9,15.6,5.9
					c6.2,0,10.3-1.3,15.8-6.1c8.6,7,53.4,12.4,61.1,29c-8.7,18.5-24.7,106.6-17.8,123.5C426.6,283,368.1,283.4,338.1,277.4z"/>
				<polygon class="st3" points="367.5,132.9 366.1,169.8 397,248.3 427.5,169.8 425.6,131.9 412.6,124.8 381.2,125 				"/>
				<rect x="381.2" y="112.1" class="st4" width="30.9" height="32"/>
				<path class="st5" d="M401.9,163.8l2.1-4.5l-7.3-17.6l-7.2,17.3l2.3,4.8C395.2,163.8,398.6,163.8,401.9,163.8z"/>
				<polygon class="st6" points="381.2,125 396.8,141.6 385.7,171.4 371.9,131.1 				"/>
				<polygon class="st1" points="372,130.3 396.8,248.7 356,183.7 361.4,172.4 349.8,163.1 365.6,133.9 				"/>
				<polygon class="st6" points="412.6,124.8 396.8,141.6 407.9,171.4 421.8,130.9 				"/>
				<polygon class="st5" points="391.9,174.9 401.9,174.9 407.1,224.9 396.8,248.7 386.9,224.9 				"/>
				<polygon class="st3" points="381.2,125 396.8,141.6 385.4,164 371.9,131.1 				"/>
				<polygon class="st7" points="372,130.3 396.8,248.7 360,178.6 366.1,169.8 354.3,160.7 365.6,133.9 				"/>
				<polygon class="st1" points="422.1,130 396.8,248.7 437.5,183.7 432.2,172.4 443.8,163.1 431.3,134.3 				"/>
				<polygon class="st7" points="422.1,130 396.8,248.7 433.6,178.6 427.5,169.8 439.2,160.7 431.3,134.3 				"/>
				<polygon class="st3" points="412.6,124.8 396.8,141.6 408.1,164 421.8,130.9 				"/>
				<path class="st5" d="M391.9,163h10c2.2,4.6,2.1,8.7,0,12.6h-10C389.9,171.6,389.7,167.6,391.9,163z"/>
				<path class="st1" d="M395.4,282c0.3-8.7,0.9-19,2-34.5c1.1,15.5,1.8,25.8,2.1,34.5C398.1,282,396.7,282,395.4,282z"/>
				<polygon class="st3" points="362.8,133.9 366.7,169.3 397.4,247.3 427.7,169.3 431.5,133.9 416.9,124.4 377.5,124.4 				"/>
				<rect x="377.5" y="111.8" class="st4" width="39" height="31.8"/>
				<path class="st8" d="M397.2,130.5c15.4,0,29.6-17.6,37.1-39.2c0.4,0.5,0.9,0.7,1.5,0.8c3.1,0.5,6.6-5.2,7.8-12.8
					c1.3-7.6-0.2-14.2-3.3-14.7c-0.2,0-0.4,0-0.7,0c1.5-26.7-9.6-51.4-42.5-51.4c-33,0-44.1,24.7-42.5,51.4c-0.3-0.1-0.7-0.1-1,0
					c-3.1,0.5-4.5,7.1-3.3,14.7c1.3,7.6,4.8,13.4,7.8,12.8c0.7-0.1,1.2-0.5,1.7-1.1C367.4,112.8,381.7,130.5,397.2,130.5z"/>
				<path class="st15" d="M439.7,64.6c1.5-26.7-9.6-51.4-42.6-51.4c-33,0-44.1,24.7-42.6,51.4c2.7,0.7,5.5,5.6,6.7,11.9
					c2.1,1.5,3.7,0.6,3.7-4.8c0-15.9,2-30,12.4-33.3c9.9-3.2,12.1,3.8,19.7,3.8c7.6,0,10-6.6,19.7-3.8c10.1,2.9,12.4,17.4,12.4,33.3
					c0,5.2,1.4,6.2,3.5,4.9C433.9,70.1,436.9,64.9,439.7,64.6z"/>
				<path class="st1" d="M402.3,163.3l2.1-4.5l-7.2-17.5l-7.1,17.3l2.3,4.8C395.7,163.3,399,163.3,402.3,163.3z"/>
				<polygon class="st6" points="377.5,124.4 397.2,141.2 386.1,170.8 368.3,130.5 				"/>
				<polygon class="st13" points="368.3,130.5 397.2,247.7 356.6,183.1 362,171.8 350.4,162.6 362.8,133.9 				"/>
				<polygon class="st6" points="416.9,124.4 397.2,141.2 408.2,170.8 426.1,130.5 				"/>
				<polygon class="st1" points="392.3,174.2 402.3,174.2 407.4,224.1 397.2,247.7 387.3,224.1 				"/>
				<path class="st15" d="M432.6,38.3c-4.3,8.5-39.5,29.1-53.7,30.2c6.4-5.9,21.3-23.5,19.4-24.4c-2.1-1-24.8,16.7-36.9,20.8
					C359,13.6,396.2,15.2,432.6,38.3z"/>
				<path class="st15" d="M412.6,29.8c1.8,8.5,14.2,33.7,20.3,34.8C439,65.8,439.4,7.8,412.6,29.8z"/>
				<polygon class="st3" points="377.5,124.4 397.2,141.2 385.9,163.5 368.3,130.5 				"/>
				<polygon class="st14" points="368.3,130.5 397.2,247.7 360.6,177.9 366.7,169.3 354.9,160.2 362.8,133.9 				"/>
				<polygon class="st13" points="426.1,130.5 397.2,247.7 437.7,183.1 432.4,171.8 444,162.6 431.5,133.9 				"/>
				<polygon class="st14" points="426.1,130.5 397.2,247.7 433.8,177.9 427.7,169.3 439.4,160.2 431.5,133.9 				"/>
				<polygon class="st3" points="416.9,124.4 397.2,141.2 408.5,163.5 426.1,130.5 				"/>
				<path class="st1" d="M392.3,162.4h9.9c2.2,4.6,2,8.6,0,12.6h-9.9C390.3,171.1,390.1,167,392.3,162.4z"/>
				<path class="st1" d="M394.7,282c1.6,0,3.3,0,4.9,0c0.6-8.4-1.2-30.8-2.4-34.5C395.9,250.4,394.1,273.1,394.7,282z"/>
			</g>
			<polygon class="st11" points="458.6,265.2 472.4,176 322.7,176 336.5,265.2 			"/>
			<rect x="300.7" y="263.6" class="st11" width="193.8" height="20.7"/>
			<g>
				<path class="st12" d="M357.1,58.2c0,1.9-1.6,3.5-3.5,3.5c-1.9,0-3.5-1.6-3.5-3.5c0-13.4,5.4-25.6,14.1-34.4
					C373,15,385,9.5,398.2,9.5c13.2,0,25.2,5.5,33.9,14.3c8.7,8.8,14.1,21,14.1,34.4c0,1.9-1.6,3.5-3.5,3.5c-1.9,0-3.5-1.6-3.5-3.5
					c0-11.5-4.6-21.9-12.1-29.4c-7.5-7.6-17.7-12.2-29-12.2c-11.3,0-21.6,4.7-29,12.2C361.7,36.3,357.1,46.7,357.1,58.2z"/>
				<path class="st11" d="M355.8,49.9c2.6,0,5,0.6,7.3,1.6v46.6c-2.3,1-4.7,1.6-7.3,1.6c-5.3,0-10.1-2.4-13.8-6.2V56.1
					C345.7,52.2,350.6,49.9,355.8,49.9z"/>
				<path class="st11" d="M439.3,49.9c-2.7,0-5.3,0.6-7.7,1.6v46.6c2.4,1,5,1.6,7.7,1.6c5.6,0,10.6-2.4,14.5-6.2V56.1
					C450,52.2,444.9,49.9,439.3,49.9z"/>
			</g>
		</g>
		<g>
			<g>
				<path class="st1" d="M142.7,159.6c18.2-4.4,30.9-16.4,34.2-1.6c3.9,17.6,12.8,62.7,17.9,103.1c1.1,8.7-1.3,11.4-4,12.2
					c-12.4,3.8-23.1,4.9-36.9,6.8L142.7,159.6C142.6,159.7,142.6,159.6,142.7,159.6z"/>
				<path class="st16" d="M165.3,96.6c-11.3,53.3-33.7,148.3-50.6,148.3c-17,0-50.2-102.1-56.8-141.4C52.3,69.5,63,3.3,134.1,24.9
					C158,23.6,175.1,50.3,165.3,96.6z"/>
				<path class="st1" d="M87.2,159.6c-23.1-5.5-30.7-17.5-34.8,0.6c-4.2,19-12.5,62.5-17.4,101.3c-1.3,9.9,2.1,11.4,5.5,12.3
					c11.9,3.1,22.2,4.6,35.5,6.4L87.2,159.6C87.3,159.7,87.2,159.6,87.2,159.6z"/>
				<path class="st1" d="M69.2,277.8l-0.6,1.4c28.4,3.6,63.3,3.7,91.8,0.2c-0.3-0.6-0.5-1.1-0.8-1.6H69.2z"/>
				<path class="st7" d="M67.7,279.1c8.1-23.2,3.4-30.1-7.2-55.4C49.8,197.8,71.6,184,55.4,152c14.4-9.2,33-13,44.2-22.1
					c5.3,4.7,9.1,5.7,15.1,5.7c6,0,10-1.2,15.3-5.9c8.3,6.7,29.5,12.4,44.6,22.2c-15.5,32.8,5.5,38.2-5.2,71.6
					c-8.1,25.5-20.8,26.9-9,55.7C131.6,282.9,96.3,282.8,67.7,279.1z"/>
				<polygon class="st3" points="86.3,137.7 85,173.4 114.9,249.4 144.4,173.4 142.6,136.7 130,129.8 99.6,129.9 				"/>
				<rect x="99.6" y="117.5" class="st4" width="29.9" height="31"/>
				<path class="st8" d="M114.7,135.7c15,0,28.8-17.1,36.1-38.1c0.4,0.4,0.9,0.7,1.4,0.8c3,0.5,6.4-5.1,7.6-12.5
					c1.2-7.4-0.2-13.8-3.2-14.3c-0.2,0-0.4,0-0.6,0c1.5-26-9.3-50-41.4-50c-32.1,0-42.9,24.1-41.4,50.1c-0.3-0.1-0.7-0.1-1,0
					c-3,0.5-4.4,6.9-3.2,14.3c1.2,7.4,4.6,13,7.6,12.5c0.6-0.1,1.2-0.5,1.7-1.1C85.7,118.4,99.7,135.7,114.7,135.7z"/>
				<path class="st17" d="M119.7,167.6l2.1-4.4l-7-17.1l-6.9,16.8l2.2,4.7C113.2,167.6,116.4,167.6,119.7,167.6z"/>
				<polygon class="st6" points="99.6,129.9 114.7,146.1 103.9,174.9 90.6,135.9 				"/>
				<polygon class="st1" points="90.7,135.1 114.7,249.8 75.3,186.9 80.4,175.9 69.2,166.9 84.5,138.6 				"/>
				<polygon class="st6" points="130,129.8 114.7,146.1 125.5,174.9 139,135.7 				"/>
				<polygon class="st17" points="110,178.3 119.7,178.3 124.7,226.7 114.7,249.8 105.1,226.7 				"/>
				<polygon class="st3" points="99.6,129.9 114.7,146.1 103.7,167.8 90.6,135.9 				"/>
				<polygon class="st7" points="90.7,135.1 114.7,249.8 79.1,181.8 85,173.4 73.6,164.5 84.5,138.6 				"/>
				<polygon class="st1" points="139.2,134.9 114.7,249.8 154.2,186.9 149,175.9 160.2,166.9 148.1,139 				"/>
				<polygon class="st7" points="139.2,134.9 114.7,249.8 150.3,181.8 144.4,173.4 155.8,164.5 148.1,139 				"/>
				<polygon class="st3" points="130,129.8 114.7,146.1 125.7,167.8 139,135.7 				"/>
				<path class="st17" d="M110,166.8h9.7c2.2,4.5,2,8.4,0,12.2H110C108,175.2,107.8,171.2,110,166.8z"/>
				<path class="st1" d="M113.3,282c0.3-8.4,0.9-18.4,1.9-33.4c1,15,1.7,25,2,33.4C116,282,114.7,282,113.3,282z"/>
				<path class="st8" d="M156.9,76.2c2.9,0.6,4.1,6.1,2.8,12.2c-1.4,6.1-4.8,10.5-7.7,9.9c-2.9-0.6-4.1-6.1-2.8-12.2
					C150.5,80,154,75.6,156.9,76.2z"/>
				<path class="st16" d="M156.7,71.6c1.5-26-9.5-50-42.2-50c-32.7,0-43.7,24.1-42.2,50.1C75,72.3,77.8,77,79,83.2
					c2.1,1.4,3.7,0.6,3.7-4.7c0-15.5,1.9-29.2,12.3-32.5c9.8-3.1,12,3.7,19.5,3.7c7.5,0,9.9-6.4,19.5-3.7c10,2.8,12.3,17,12.3,32.5
					c0,5,1.4,6,3.4,4.8C151,76.9,153.9,71.9,156.7,71.6z"/>
				<path class="st16" d="M133.2,32.3C131.3,46.9,82,92.2,64,94.7c-5.6-75,40.5-43.8,45-59C110.1,32.1,134.2,35.4,133.2,32.3z"/>
				<path class="st16" d="M107.2,35.6c-1.2,14.7,37.2,54.7,54.2,60.9c6.4-53.7-7.5-60.6-17-65C141,29.9,105.6,38.4,107.2,35.6z"/>
			</g>
			<polygon class="st11" points="176,265.2 189.8,176 40.1,176 53.9,265.2 			"/>
			<rect x="18" y="263.6" class="st11" width="193.8" height="20.7"/>
			<g>
				<path class="st12" d="M74.1,67.4c0,1.9-1.6,3.5-3.5,3.5c-1.9,0-3.5-1.6-3.5-3.5c0-13.4,5.4-25.6,14.1-34.4
					c8.7-8.8,20.7-14.3,33.9-14.3s25.2,5.5,33.9,14.3c8.7,8.8,14.1,21,14.1,34.4c0,1.9-1.6,3.5-3.5,3.5c-1.9,0-3.5-1.6-3.5-3.5
					c0-11.5-4.6-21.9-12.1-29.4c-7.5-7.6-17.7-12.2-29-12.2c-11.3,0-21.6,4.7-29,12.2C78.7,45.5,74.1,56,74.1,67.4z"/>
				<path class="st11" d="M72.8,59.1c2.6,0,5,0.6,7.3,1.6v46.6c-2.3,1-4.7,1.6-7.3,1.6c-5.3,0-10.1-2.4-13.8-6.2V65.3
					C62.7,61.5,67.5,59.1,72.8,59.1z"/>
				<path class="st11" d="M156.3,59.1c-2.7,0-5.3,0.6-7.7,1.6v46.6c2.4,1,5,1.6,7.7,1.6c5.6,0,10.6-2.4,14.5-6.2V65.3
					C166.9,61.5,161.9,59.1,156.3,59.1z"/>
			</g>
		</g>
		<g>
			<g>
				<path class="st13" d="M571.5,260.7c20.7-4.9,35-18.6,38.7-1.8c4.5,19.9,14.5,71,20.3,116.8c1.2,9.9-1.4,12.9-4.6,13.8
					c-14.1,4.3-26.2,5.6-41.7,7.7L571.5,260.7C571.5,260.8,571.5,260.7,571.5,260.7z"/>
				<path class="st18" d="M597.2,189.3c-12.7,60.3-38.1,167.8-57.3,167.8c-19.2,0-56.8-115.5-64.2-160.1
					c-6.4-38.4,5.7-113.3,86.3-88.9C588.9,106.7,608.2,137,597.2,189.3z"/>
				<path class="st13" d="M508.8,260.7c-26.1-6.2-34.8-19.9-39.3,0.6c-4.8,21.5-14.2,70.7-19.7,114.6c-1.4,11.3,2.4,12.9,6.2,13.9
					c13.5,3.5,25.2,5.2,40.1,7.3L508.8,260.7C508.8,260.8,508.8,260.7,508.8,260.7z"/>
				<path class="st1" d="M488.4,394.5l-0.7,1.6c32.1,4.1,71.7,4.1,103.9,0.2c-0.3-0.7-0.6-1.3-0.9-1.8H488.4z"/>
				<path class="st14" d="M486.7,396c9.1-26.3,3.8-34.1-8.1-62.7c-12.2-29.2,12.5-44.9-5.8-81.1c16.3-10.5,37.3-14.7,50-25
					c6,5.3,10.3,6.5,17.1,6.5c6.8,0,11.3-1.4,17.3-6.7c9.4,7.6,33.4,14.1,50.4,25.2c-17.5,37.2,6.2,43.3-5.8,81.1
					c-9.2,28.9-23.6,30.5-10.2,63.1C559.1,400.3,519,400.2,486.7,396z"/>
				<polygon class="st3" points="507.8,235.9 506.3,276.3 540.1,362.3 573.5,276.3 571.4,234.7 557.2,227 522.8,227.1 				"/>
				<rect x="522.8" y="213" class="st4" width="33.8" height="35"/>
				<path class="st8" d="M539.9,233.6c17,0,32.6-19.4,40.9-43.1c0.5,0.5,1,0.8,1.6,0.9c3.4,0.6,7.2-5.8,8.6-14.2
					c1.4-8.4-0.2-15.6-3.6-16.2c-0.2,0-0.5,0-0.7,0c1.7-29.4-10.5-56.6-46.9-56.6c-36.4,0-48.5,27.2-46.9,56.7
					c-0.4-0.1-0.7-0.1-1.1-0.1c-3.4,0.6-5,7.8-3.6,16.2c1.4,8.4,5.3,14.7,8.6,14.2c0.7-0.1,1.4-0.5,1.9-1.2
					C507.1,214.1,522.9,233.6,539.9,233.6z"/>
				<path class="st19" d="M545.5,269.7l2.4-5l-8-19.3l-7.8,19l2.5,5.3C538.2,269.7,541.8,269.7,545.5,269.7z"/>
				<polygon class="st6" points="522.8,227.1 539.9,245.4 527.7,278 512.7,233.8 				"/>
				<polygon class="st13" points="512.8,233 539.9,362.8 495.2,291.5 501.1,279.1 488.4,269 505.7,236.9 				"/>
				<polygon class="st6" points="557.2,227 539.9,245.4 552.1,278 567.3,233.7 				"/>
				<polygon class="st19" points="534.5,281.8 545.5,281.8 551.2,336.7 539.9,362.8 529,336.7 				"/>
				<polygon class="st3" points="522.8,227.1 539.9,245.4 527.4,269.9 512.7,233.8 				"/>
				<polygon class="st14" points="512.8,233 539.9,362.8 499.6,285.9 506.3,276.3 493.4,266.3 505.7,236.9 				"/>
				<polygon class="st13" points="567.7,232.7 539.9,362.8 584.5,291.5 578.7,279.1 591.4,269 577.7,237.3 				"/>
				<polygon class="st14" points="567.7,232.7 539.9,362.8 580.2,285.9 573.5,276.3 586.4,266.3 577.7,237.3 				"/>
				<polygon class="st3" points="557.2,227 539.9,245.4 552.3,269.9 567.3,233.7 				"/>
				<path class="st19" d="M534.5,268.8h10.9c2.4,5.1,2.3,9.5,0,13.8h-10.9C532.3,278.3,532.1,273.9,534.5,268.8z"/>
				<path class="st13" d="M538.3,399.2c0.3-9.5,1-20.8,2.2-37.8c1.2,17,1.9,28.3,2.3,37.8C541.3,399.2,539.8,399.2,538.3,399.2z"/>
				<path class="st8" d="M587.6,166.3c3.3,0.7,4.7,6.9,3.1,13.8c-1.5,6.9-5.4,11.9-8.7,11.2c-3.3-0.7-4.7-6.9-3.1-13.8
					C580.4,170.6,584.3,165.6,587.6,166.3z"/>
				<path class="st18" d="M587.4,161.1c1.7-29.4-10.7-56.6-47.7-56.6c-37,0-49.4,27.2-47.7,56.7c3,0.7,6.1,6.1,7.5,13.1
					c2.4,1.6,4.2,0.7,4.2-5.3c0-17.5,2.2-33,13.9-36.7c11.1-3.5,13.6,4.2,22.1,4.2c8.5,0,11.2-7.3,22.1-4.2
					c11.3,3.2,13.9,19.2,13.9,36.7c0,5.7,1.6,6.8,3.9,5.5C580.9,167,584.3,161.4,587.4,161.1z"/>
				<path class="st18" d="M573.4,114.4c2.4,16.5-23.6,52.4-42.4,60.7c12-6.7,19.9-31.5,17-49.5C547.4,121.4,575.4,117.6,573.4,114.4
					z"/>
				<path class="st18" d="M560.9,116.6c-2.2,16.5-58,67.8-78.4,70.6c-6.3-84.9,45.9-49.6,50.9-66.8
					C534.6,116.4,561.9,120.2,560.9,116.6z"/>
				<path class="st18" d="M547.5,106.1c-1.3,16.6,26,76.1,45.3,83.2c7.3-60.7-8.5-68.6-19.3-73.6
					C569.6,113.9,545.7,109.3,547.5,106.1z"/>
			</g>
			<g>
				<path class="st12" d="M495.6,154.9c0,2.1-1.7,3.8-3.8,3.8c-2.1,0-3.8-1.7-3.8-3.8c0-14.6,5.9-27.9,15.4-37.5
					c9.5-9.6,22.6-15.6,37-15.6c14.4,0,27.5,6,37,15.6c9.5,9.6,15.4,22.9,15.4,37.5c0,2.1-1.7,3.8-3.8,3.8c-2.1,0-3.8-1.7-3.8-3.8
					c0-12.5-5-23.8-13.2-32.1c-8.1-8.2-19.3-13.3-31.6-13.3c-12.3,0-23.5,5.1-31.6,13.3C500.7,131.1,495.6,142.4,495.6,154.9z"/>
				<path class="st11" d="M494.3,145.9c2.8,0,5.5,0.6,7.9,1.7v50.8c-2.5,1.1-5.1,1.7-7.9,1.7c-5.8,0-11-2.6-15-6.8v-40.6
					C483.2,148.4,488.5,145.9,494.3,145.9z"/>
				<path class="st11" d="M585.2,145.9c-2.9,0-5.8,0.6-8.3,1.7v50.8c2.6,1.1,5.4,1.7,8.3,1.7c6.1,0,11.6-2.6,15.8-6.8v-40.6
					C596.8,148.4,591.3,145.9,585.2,145.9z"/>
			</g>
			<polygon class="st11" points="609.5,380.7 625.2,278.9 455.1,278.9 470.8,380.7 			"/>
			<rect x="430.1" y="378.9" class="st11" width="220.1" height="23.6"/>
		</g>
		<g>
			<g>
				<path class="st1" d="M283.3,256.8c21.2-5.1,50.8-17.1,54.7,0.1c4.6,20.4,10.3,68.9,16.2,115.9c1.3,10.1-11.7,15.4-15,16.4
					c-14.5,4.4-26.9,5.7-42.9,7.9L283.3,256.8C283.3,256.9,283.3,256.9,283.3,256.8z"/>
				<path class="st1" d="M218.8,256.8c-26.8-6.4-48.1-21.3-52.8-0.3c-4.9,22.1-10.3,70.4-15.9,115.5c-1.5,11.6,10.6,16.5,14.5,17.5
					c13.9,3.6,25.9,5.4,41.3,7.5L218.8,256.8C218.9,256.9,218.8,256.8,218.8,256.8z"/>
				<path class="st1" d="M197.9,394.4l-0.7,1.6c33,4.2,73.7,4.3,106.9,0.2c-0.3-0.7-0.6-1.3-0.9-1.9H197.9z"/>
				<path class="st7" d="M184.6,394c7.3-21.1-9.4-120.1-18.6-138.3c5.3-18.7,54.2-22.8,67.2-33.4c6.2,5.4,10.6,6.7,17.6,6.7
					c7,0,11.6-1.4,17.8-6.9c9.6,7.9,60.2,14,68.8,32.7c-9.8,20.9-27.9,120.1-20.1,139.2C284.4,400.4,218.5,400.9,184.6,394z"/>
				<polygon class="st3" points="217.8,231.3 216.2,272.9 251,361.3 285.4,272.9 283.2,230.1 268.6,222.1 233.2,222.3 				"/>
				<rect x="233.2" y="207.8" class="st4" width="34.8" height="36"/>
				<path class="st5" d="M256.6,266.1l2.4-5.1l-8.2-19.9l-8.1,19.5l2.6,5.4C249.1,266.1,252.8,266.1,256.6,266.1z"/>
				<polygon class="st6" points="233.2,222.3 250.8,241.1 238.3,274.6 222.8,229.2 				"/>
				<polygon class="st1" points="222.9,228.3 250.8,361.7 204.9,288.5 210.9,275.8 197.8,265.3 215.6,232.3 				"/>
				<polygon class="st6" points="268.6,222.1 250.8,241.1 263.3,274.6 279,229 				"/>
				<polygon class="st5" points="245.3,278.5 256.6,278.5 262.4,334.9 250.8,361.7 239.6,334.9 				"/>
				<polygon class="st3" points="233.2,222.3 250.8,241.1 238,266.3 222.8,229.2 				"/>
				<polygon class="st7" points="222.9,228.3 250.8,361.7 209.3,282.7 216.2,272.9 203,262.6 215.6,232.3 				"/>
				<polygon class="st1" points="279.4,228 250.8,361.7 296.7,288.5 290.7,275.8 303.8,265.3 289.7,232.8 				"/>
				<polygon class="st7" points="279.4,228 250.8,361.7 292.2,282.7 285.4,272.9 298.6,262.6 289.7,232.8 				"/>
				<polygon class="st3" points="268.6,222.1 250.8,241.1 263.6,266.3 279,229 				"/>
				<path class="st5" d="M245.3,265.1h11.3c2.5,5.2,2.3,9.8,0,14.2h-11.3C243,274.9,242.8,270.4,245.3,265.1z"/>
				<path class="st1" d="M249.2,399.2c0.3-9.8,1-21.4,2.2-38.9c1.2,17.5,2,29.1,2.4,38.9C252.3,399.2,250.7,399.2,249.2,399.2z"/>
				<polygon class="st3" points="212.5,232.3 216.8,272.2 251.5,360.2 285.6,272.2 290,232.3 273.4,221.7 229,221.7 				"/>
				<rect x="229" y="207.4" class="st4" width="44" height="35.8"/>
				<path class="st8" d="M251.2,228.5c17.3,0,33.4-19.8,41.9-44.1c0.5,0.5,1.1,0.8,1.7,0.9c3.4,0.6,7.4-5.9,8.8-14.5
					c1.4-8.6-0.2-16-3.7-16.6c-0.2,0-0.5,0-0.7,0c1.7-30.1-10.8-57.9-47.9-57.9c-37.2,0-49.7,27.8-47.9,58c-0.4-0.1-0.8-0.1-1.1-0.1
					c-3.4,0.6-5.1,8-3.7,16.6c1.4,8.6,5.4,15,8.8,14.5c0.7-0.1,1.4-0.6,1.9-1.2C217.7,208.6,233.8,228.5,251.2,228.5z"/>
				<path class="st20" d="M299.2,154.3c1.7-30.1-10.8-57.9-47.9-57.9c-37.2,0-49.7,27.8-47.9,58c3,0.8,6.1,6.3,7.5,13.4
					c2.4,1.6,4.2,0.7,4.2-5.4c0-17.9,2.2-33.8,14-37.6c11.2-3.6,13.7,4.3,22.2,4.3c8.5,0,11.2-7.4,22.2-4.3
					c11.4,3.3,14,19.7,14,37.6c0,5.8,1.6,6.9,3.9,5.6C292.7,160.4,296,154.7,299.2,154.3z"/>
				<path class="st10" d="M257,265.4l2.4-5.1l-8.2-19.8l-8,19.4l2.6,5.4C249.5,265.4,253.2,265.4,257,265.4z"/>
				<polygon class="st6" points="229,221.7 251.2,240.6 238.8,273.9 218.7,228.6 				"/>
				<polygon class="st1" points="218.7,228.6 251.2,360.6 205.6,287.8 211.6,275.1 198.5,264.7 212.5,232.3 				"/>
				<polygon class="st6" points="273.4,221.7 251.2,240.6 263.7,273.9 283.8,228.6 				"/>
				<polygon class="st10" points="245.8,277.8 257,277.8 262.8,334 251.2,360.6 240.1,334 				"/>
				<polygon class="st3" points="229,221.7 251.2,240.6 238.5,265.7 218.7,228.6 				"/>
				<polygon class="st7" points="218.7,228.6 251.2,360.6 210,282 216.8,272.2 203.6,262 212.5,232.3 				"/>
				<polygon class="st1" points="283.8,228.6 251.2,360.6 296.9,287.8 290.9,275.1 303.9,264.7 290,232.3 				"/>
				<polygon class="st7" points="283.8,228.6 251.2,360.6 292.5,282 285.6,272.2 298.8,262 290,232.3 				"/>
				<polygon class="st3" points="273.4,221.7 251.2,240.6 264,265.7 283.8,228.6 				"/>
				<path class="st10" d="M245.8,264.5H257c2.5,5.2,2.3,9.7,0,14.2h-11.2C243.5,274.2,243.3,269.7,245.8,264.5z"/>
				<path class="st1" d="M248.4,399.2c1.8,0,3.7,0,5.5,0c0.7-9.5-1.4-34.7-2.8-38.9C249.8,363.7,247.8,389.2,248.4,399.2z"/>
			</g>
			<g>
				<path class="st12" d="M206.9,147.1c0,2.1-1.7,3.9-3.8,3.9s-3.8-1.7-3.8-3.9c0-14.8,6-28.3,15.6-38.1
					c9.6-9.8,22.9-15.8,37.5-15.8c14.6,0,27.9,6.1,37.5,15.8c9.6,9.8,15.6,23.2,15.6,38.1c0,2.1-1.7,3.9-3.8,3.9
					c-2.1,0-3.8-1.7-3.8-3.9c0-12.7-5.1-24.2-13.4-32.5c-8.2-8.4-19.6-13.5-32.1-13.5c-12.5,0-23.9,5.2-32.1,13.5
					C212,122.9,206.9,134.4,206.9,147.1z"/>
				<path class="st11" d="M205.5,137.9c2.8,0,5.5,0.6,8.1,1.7v51.5c-2.5,1.1-5.2,1.7-8.1,1.7c-5.8,0-11.2-2.6-15.2-6.9v-41.2
					C194.4,140.5,199.7,137.9,205.5,137.9z"/>
				<path class="st11" d="M297.9,137.9c-3,0-5.8,0.6-8.5,1.7v51.5c2.6,1.1,5.5,1.7,8.5,1.7c6.1,0,11.8-2.6,16-6.9v-41.2
					C309.6,140.5,304,137.9,297.9,137.9z"/>
			</g>
			<polygon class="st11" points="323.1,380.7 338.8,278.9 168.8,278.9 184.5,380.7 			"/>
			<rect x="143.7" y="378.9" class="st11" width="220.1" height="23.6"/>
		</g>
	</g>
</g>
</svg>
